<svg width="36" height="36" viewBox="0 0 36 36" fill="none" xmlns="http://www.w3.org/2000/svg">
  <path
    d="M33.5593 18.0002L28.7218 13.1627C29.2618 12.9377 29.7567 12.6002 30.1843 12.1841C31.9391 10.429 31.9391 7.57147 30.1843 5.81641C29.3293 4.97266 28.2043 4.50025 27.0005 4.50025C25.7967 4.50025 24.6717 4.97266 23.8167 5.81641C23.3893 6.24405 23.063 6.75025 22.838 7.27896L18.0005 2.44141L16.4143 4.03882L13.1629 7.29022C12.9493 6.75025 12.623 6.25531 12.1843 5.81641C11.3293 4.97266 10.2043 4.50025 9.00049 4.50025C7.79666 4.50025 6.67166 4.97266 5.81665 5.81641C4.06186 7.57147 4.06186 10.429 5.81665 12.1841C6.2443 12.6115 6.75049 12.9377 7.29047 13.1627L4.03934 16.4138L2.44165 18.0002L4.03934 19.5864L7.27921 22.8378C6.73923 23.0627 6.2443 23.4003 5.81665 23.8164C4.06186 25.5715 4.06186 28.429 5.81665 30.1841C6.67166 31.0278 7.79666 31.5002 9.00049 31.5002C10.2043 31.5002 11.3293 31.0278 12.1843 30.1841C12.623 29.7452 12.9493 29.2502 13.1629 28.7103V28.71L16.4143 31.9614L18.0005 33.5591L22.838 28.7215C23.063 29.2503 23.3893 29.7565 23.8167 30.1841C24.6717 31.0278 25.7967 31.5003 27.0005 31.5003C28.2043 31.5003 29.3293 31.0278 30.1843 30.1841C31.9391 28.429 31.9391 25.5715 30.1843 23.8164C29.7567 23.4003 29.2618 23.0628 28.7218 22.8378L31.9729 19.5864L33.5593 18.0003V18.0002ZM25.4143 7.41382C25.853 6.97519 26.4267 6.75025 27.0005 6.75025C27.5743 6.75025 28.1593 6.97519 28.5979 7.41382C29.4754 8.29162 29.4754 9.70886 28.5979 10.5864C28.1593 11.0253 27.5743 11.2502 27.0005 11.2502C26.9329 11.2502 26.8541 11.2502 26.7868 11.2277C26.2806 11.1939 25.7967 10.969 25.4143 10.5864C25.0317 10.2041 24.8068 9.72039 24.773 9.21393C24.7054 8.57288 24.9194 7.90903 25.4143 7.41382ZM9.00049 11.2502C8.42673 11.2502 7.85297 11.0253 7.41434 10.5864C6.53681 9.70886 6.53681 8.29163 7.41434 7.41382C7.85297 6.97519 8.42673 6.75025 9.00049 6.75025C9.57425 6.75025 10.1593 6.97519 10.5979 7.41382C11.0931 7.90903 11.3068 8.58386 11.228 9.22519C11.1942 9.7204 10.9805 10.2041 10.5979 10.5864C10.2156 10.969 9.72037 11.1827 9.22543 11.2277C9.14689 11.2502 9.07932 11.2502 9.00049 11.2502ZM10.5979 28.5864C10.1593 29.0253 9.57425 29.2502 9.00049 29.2502C8.42673 29.2502 7.85297 29.0253 7.41434 28.5864C6.53681 27.7089 6.53681 26.2916 7.41434 25.4138C7.85297 24.9752 8.42673 24.7502 9.00049 24.7502C9.07932 24.7502 9.14689 24.7502 9.22543 24.7728C9.72037 24.8178 10.2156 25.0315 10.5979 25.4138C10.9805 25.7964 11.1942 26.2801 11.228 26.7753C11.3068 27.4166 11.0931 28.0915 10.5979 28.5864ZM27.0005 24.7502C27.5743 24.7502 28.1593 24.9752 28.5979 25.4138C29.4754 26.2916 29.4754 27.7089 28.5979 28.5864C28.1593 29.0253 27.5743 29.2502 27.0005 29.2502C26.4267 29.2502 25.853 29.0253 25.4143 28.5864C24.9194 28.0915 24.7054 27.4276 24.773 26.7866C24.8068 26.2801 25.0317 25.7964 25.4143 25.4138C25.7967 25.0315 26.2806 24.8066 26.7868 24.7728C26.8541 24.7503 26.9329 24.7503 27.0005 24.7503V24.7502ZM25.6843 22.6914L22.6917 25.6841L18.0005 30.3752L13.3093 25.6841L10.3167 22.6914L5.62549 18.0002L10.3167 13.3091L13.3093 10.3164L18.0005 5.62525L22.6917 10.3164L25.6843 13.3091L30.3755 18.0002L25.6843 22.6914Z"
    fill="#00880D" />
  <path d="M16.894 19.125H14.644V16.875H15.769L13.519 14.625L11.269 16.875H12.394V19.125V21.375H14.644L16.894 19.125Z"
    fill="#00880D" />
  <path d="M19.144 21.375H16.894V20.25L14.644 22.5L16.894 24.75V23.625H19.144H21.394V21.375L19.144 19.125V21.375Z"
    fill="#00880D" />
  <path d="M23.644 16.875V14.625H21.394L19.144 16.875H21.394V19.125H20.269L22.519 21.375L24.769 19.125H23.644V16.875Z"
    fill="#00880D" />
  <path d="M16.894 14.625H19.144V15.75L21.394 13.5L19.144 11.25V12.375H16.894H14.644V14.625L16.894 16.875V14.625Z"
    fill="#00880D" />
</svg>