<svg width="28" height="26" viewBox="0 0 28 26" fill="none" xmlns="http://www.w3.org/2000/svg">
  <g clip-path="url(#clip0_34_17677)">
    <path
      d="M3.875 20.875H9.5V23.125H3.875V25.375H23V23.125H18.5V20.875H24.125C25.9924 20.875 27.5 19.3674 27.5 17.5V4C27.5 2.13247 25.9924 0.625 24.125 0.625H3.875C2.0076 0.625 0.5 2.13247 0.5 4V17.5C0.5 19.3674 2.0076 20.875 3.875 20.875ZM16.25 23.125H11.75V20.875H16.25V23.125ZM2.75 4C2.75 3.38119 3.25619 2.875 3.875 2.875H24.125C24.7438 2.875 25.25 3.38119 25.25 4V17.5C25.25 18.1188 24.7438 18.625 24.125 18.625H3.875C3.25619 18.625 2.75 18.1188 2.75 17.5V4Z"
      fill="#00880D" />
    <path d="M19.3359 9.35202C16.5399 6.71599 12.007 6.71599 9.21094 9.35202L14.2734 14.125L19.3359 9.35202Z"
      fill="#00880D" />
  </g>
  <defs>
    <clipPath id="clip0_34_17677">
      <rect width="27" height="24.75" fill="white" transform="translate(0.5 0.625)" />
    </clipPath>
  </defs>
</svg>