<svg width="345" height="176" viewBox="0 0 345 176" fill="none" xmlns="http://www.w3.org/2000/svg">
<g filter="url(#filter0_d_44_19016)">
<rect x="2.5" y="0.5" width="163" height="79" rx="12.5" fill="#F4F5F7" stroke="#E2E5E9"/>
<path d="M3 13C3 6.37259 8.37258 1 15 1H153C159.627 1 165 6.37258 165 13V62.9998C165 68.5226 160.523 72.9998 155 72.9998H13C7.47716 72.9998 3 68.5227 3 62.9998V13Z" fill="#F9FAFB"/>
<g filter="url(#filter1_i_44_19016)">
<path d="M3 13C3 6.37259 8.37258 1 15 1H153C159.627 1 165 6.37258 165 13V62.9998C165 68.5226 160.523 72.9998 155 72.9998H13C7.47716 72.9998 3 68.5227 3 62.9998V13Z" fill="url(#paint0_linear_44_19016)"/>
</g>
<path d="M3.5 62.9998C3.5 68.2465 7.7533 72.4998 13 72.4998H155C160.247 72.4998 164.5 68.2465 164.5 62.9998V13C164.5 6.64875 159.351 1.50002 153 1.50002H15C8.64873 1.50002 3.5 6.64874 3.5 13V62.9998Z" stroke="url(#paint1_linear_44_19016)"/>
<g filter="url(#filter2_d_44_19016)">
<rect x="15" y="13" width="32" height="32" rx="16" fill="url(#paint2_linear_44_19016)" shape-rendering="crispEdges"/>
<rect x="15.225" y="13.225" width="31.55" height="31.55" rx="15.775" stroke="url(#paint3_linear_44_19016)" stroke-width="0.45" shape-rendering="crispEdges"/>
<path fill-rule="evenodd" clip-rule="evenodd" d="M35.8281 30.7068V31.2037C35.8281 31.5098 35.5771 31.7613 35.2704 31.7613C34.9637 31.7613 34.7127 31.5098 34.7127 31.2037V30.7068C34.5398 30.5562 34.4339 30.3331 34.4339 30.0883C34.4339 29.6254 34.8075 29.2518 35.2704 29.2518C35.7333 29.2518 36.1069 29.6254 36.1069 30.0883C36.1069 30.3331 36.0015 30.5562 35.8281 30.7068ZM38.6053 28.8335C38.4887 27.1265 37.0945 25.8494 35.3596 25.9057H26.9052C26.5984 25.9057 26.3475 25.6542 26.3475 25.348C26.3475 25.0408 26.5984 24.7904 26.9052 24.7904H35.4711C35.4154 23.6912 34.5788 22.4977 33.5192 22.3304C31.0047 21.8899 28.489 21.8899 25.9738 22.3304C24.5796 22.5535 23.52 23.9315 23.297 25.3084C22.901 27.9524 22.901 30.5952 23.297 33.2331C23.52 34.6669 24.8975 36.0494 26.3475 36.2111C29.4761 36.5964 32.6046 36.5964 35.6775 36.2111C37.0717 36.0494 37.9863 34.7778 38.2651 33.4004C38.5439 31.8612 38.661 30.3164 38.6053 28.8335Z" fill="#00AED6"/>
</g>
<path d="M55.746 34.21C53.212 34.21 51.574 32.208 51.574 29.1C51.574 25.992 53.212 23.99 55.746 23.99C57.734 23.99 59.232 25.292 59.512 27.266L58.098 27.504C57.832 26.104 57.006 25.334 55.746 25.334C54.052 25.334 53.016 26.762 53.016 29.1C53.016 31.438 54.052 32.866 55.746 32.866C57.258 32.866 58.154 31.9 58.126 30.332H55.872V29.044H59.526V30.15C59.526 32.614 58.042 34.21 55.746 34.21ZM64.2215 34.21C62.0935 34.21 60.6795 32.628 60.6795 30.29C60.6795 27.952 62.0935 26.37 64.2215 26.37C66.3355 26.37 67.7635 27.952 67.7635 30.29C67.7635 32.628 66.3355 34.21 64.2215 34.21ZM64.2215 32.936C65.5655 32.936 66.3915 31.914 66.3915 30.29C66.3915 28.666 65.5655 27.644 64.2215 27.644C62.8775 27.644 62.0515 28.666 62.0515 30.29C62.0515 31.914 62.8775 32.936 64.2215 32.936ZM70.9119 34H69.4699V24.2H73.3339C75.4059 24.2 76.6379 25.376 76.6379 27.28C76.6379 29.198 75.4059 30.346 73.3199 30.346H70.9119V34ZM70.9119 25.544V29.002H73.2639C74.5519 29.002 75.1959 28.428 75.1959 27.28C75.1959 26.104 74.5659 25.544 73.2779 25.544H70.9119ZM79.9872 34.21C78.5032 34.21 77.5512 33.37 77.5512 32.068C77.5512 30.822 78.2792 30.164 80.1692 29.716C81.5132 29.38 81.9332 29.1 81.9332 28.568C81.9332 27.966 81.4152 27.574 80.5752 27.574C79.6652 27.574 79.0352 28.12 78.8532 29.044L77.5232 28.764C77.7752 27.308 78.9792 26.37 80.5752 26.37C82.2972 26.37 83.3612 27.336 83.3612 28.904V34H82.1012V33.286H82.0732C81.6112 33.874 80.8552 34.21 79.9872 34.21ZM80.1552 32.978C81.2332 32.978 82.0032 32.362 82.0032 31.494V30.024H81.9752C81.8352 30.346 81.4012 30.57 80.5192 30.808C79.3432 31.102 78.8952 31.424 78.8952 31.984C78.8952 32.628 79.3432 32.978 80.1552 32.978ZM86.7909 37.15H85.3769L86.9449 33.482L84.0609 26.58H85.5169L87.6309 31.858H87.6589L89.7589 26.58H91.2009L86.7909 37.15ZM99.328 26.58V27.812H97.508V32.04C97.508 32.516 97.69 32.698 98.306 32.698H98.978V34H98.194C96.682 34 96.136 33.482 96.136 32.068V27.812H94.974V26.58H96.136V24.844H97.508V26.58H99.328ZM101.925 34H100.553V26.58H101.841V27.196H101.869C102.163 26.734 102.723 26.454 103.423 26.454C103.731 26.454 103.983 26.496 104.249 26.566L103.983 27.938C103.689 27.854 103.465 27.812 103.213 27.812C102.359 27.812 101.925 28.386 101.925 29.688V34ZM107.017 34.21C105.533 34.21 104.581 33.37 104.581 32.068C104.581 30.822 105.309 30.164 107.199 29.716C108.543 29.38 108.963 29.1 108.963 28.568C108.963 27.966 108.445 27.574 107.605 27.574C106.695 27.574 106.065 28.12 105.883 29.044L104.553 28.764C104.805 27.308 106.009 26.37 107.605 26.37C109.327 26.37 110.391 27.336 110.391 28.904V34H109.131V33.286H109.103C108.641 33.874 107.885 34.21 107.017 34.21ZM107.185 32.978C108.263 32.978 109.033 32.362 109.033 31.494V30.024H109.005C108.865 30.346 108.431 30.57 107.549 30.808C106.373 31.102 105.925 31.424 105.925 31.984C105.925 32.628 106.373 32.978 107.185 32.978ZM113.396 34H112.024V26.58H113.34V27.238H113.368C113.816 26.72 114.642 26.37 115.426 26.37C117.12 26.37 118.226 27.476 118.226 29.212V34H116.854V29.422C116.854 28.316 116.224 27.644 115.16 27.644C114.096 27.644 113.396 28.358 113.396 29.422V34ZM122.812 34.21C120.866 34.21 119.662 33.23 119.438 31.508L120.726 31.228C120.964 32.474 121.552 32.992 122.812 32.992C123.694 32.992 124.254 32.572 124.254 31.984C124.254 31.466 123.834 31.186 122.294 30.71C120.488 30.164 119.802 29.604 119.802 28.526C119.802 27.322 120.936 26.37 122.42 26.37C123.974 26.37 125.136 27.238 125.444 28.568L124.156 28.904C123.904 28.036 123.33 27.588 122.42 27.588C121.678 27.588 121.174 28.008 121.174 28.498C121.174 28.946 121.524 29.156 122.868 29.576C124.856 30.206 125.64 30.808 125.64 31.984C125.64 33.286 124.492 34.21 122.812 34.21ZM128.711 34H127.339V27.812H126.023V26.58H127.339V25.782C127.339 24.732 128.011 24.06 129.201 24.06H130.391V25.32H129.355C128.921 25.32 128.711 25.516 128.711 25.95V26.58H130.629V27.812H128.711V34ZM134.561 34.21C132.489 34.21 131.103 32.628 131.103 30.29C131.103 27.966 132.503 26.37 134.547 26.37C136.577 26.37 137.907 27.882 137.907 30.122V30.696H132.489C132.531 31.984 133.315 32.992 134.547 32.992C135.485 32.992 136.045 32.628 136.661 31.634L137.725 32.348C137.067 33.58 135.975 34.21 134.561 34.21ZM132.517 29.646H136.549C136.493 28.456 135.737 27.588 134.547 27.588C133.413 27.588 132.545 28.526 132.517 29.646ZM140.712 34H139.34V26.58H140.628V27.196H140.656C140.95 26.734 141.51 26.454 142.21 26.454C142.518 26.454 142.77 26.496 143.036 26.566L142.77 27.938C142.476 27.854 142.252 27.812 142 27.812C141.146 27.812 140.712 28.386 140.712 29.688V34Z" fill="#1E2225"/>
<path d="M20.808 61H16.032V52.6H17.016V60.064H20.808V61ZM24.6455 61.18C22.8455 61.18 21.6575 59.824 21.6575 57.82C21.6575 55.816 22.8455 54.46 24.6455 54.46C26.4455 54.46 27.6455 55.816 27.6455 57.82C27.6455 59.824 26.4455 61.18 24.6455 61.18ZM24.6455 60.304C25.9055 60.304 26.7095 59.332 26.7095 57.82C26.7095 56.308 25.9055 55.336 24.6455 55.336C23.3855 55.336 22.5935 56.308 22.5935 57.82C22.5935 59.332 23.3855 60.304 24.6455 60.304ZM29.9116 61H28.9756V54.64H29.8876V55.228H29.9116C30.2956 54.772 31.0156 54.46 31.6996 54.46C33.1756 54.46 34.1116 55.408 34.1116 56.884V61H33.1756V57.004C33.1756 55.972 32.5756 55.336 31.5916 55.336C30.5836 55.336 29.9116 56.02 29.9116 57.004V61ZM38.4998 63.88C37.2758 63.88 36.3158 63.232 35.9198 62.14L36.7718 61.756C37.1558 62.656 37.6358 63.016 38.4998 63.016C39.5318 63.016 40.1438 62.296 40.1438 61.132V60.328H40.1198C39.7478 60.88 39.0758 61.18 38.2358 61.18C36.5558 61.18 35.3918 59.788 35.3918 57.82C35.3918 55.84 36.5558 54.46 38.2478 54.46C38.9918 54.46 39.6878 54.772 40.1198 55.312H40.1438V54.64H41.0798V61.192C41.0798 62.8 40.0598 63.88 38.4998 63.88ZM38.3078 60.304C39.3278 60.304 40.1438 59.464 40.1438 58.432V57.196C40.1438 56.164 39.3158 55.336 38.2478 55.336C37.0958 55.336 36.3278 56.332 36.3278 57.82C36.3278 59.32 37.1078 60.304 38.3078 60.304ZM46.7749 63.7H45.8389V54.64H46.7749V55.312H46.7989C47.2069 54.808 47.8789 54.46 48.6589 54.46C50.3389 54.46 51.5269 55.828 51.5269 57.82C51.5269 59.812 50.3389 61.18 48.6829 61.18C47.8909 61.18 47.1949 60.844 46.7989 60.364H46.7749V63.7ZM48.6109 60.304C49.8109 60.304 50.5909 59.32 50.5909 57.82C50.5909 56.32 49.8109 55.336 48.6589 55.336C47.6029 55.336 46.7749 56.164 46.7749 57.196V58.432C46.7749 59.476 47.6029 60.304 48.6109 60.304ZM53.8061 61H52.8701V54.64H53.7581V55.168H53.7821C54.0221 54.772 54.4901 54.532 55.1021 54.532C55.3301 54.532 55.5221 54.568 55.7381 54.628L55.5341 55.6C55.3061 55.528 55.1261 55.492 54.9101 55.492C54.1781 55.492 53.8061 55.984 53.8061 57.184V61ZM59.1092 61.18C57.3452 61.18 56.1692 59.824 56.1692 57.82C56.1692 55.816 57.3572 54.46 59.1092 54.46C60.8252 54.46 61.9532 55.732 61.9532 57.616V58.096H57.1172C57.1412 59.308 57.9092 60.328 59.0852 60.328C59.9852 60.328 60.4892 59.992 61.0292 59.056L61.8092 59.524C61.2572 60.616 60.3332 61.18 59.1092 61.18ZM57.1412 57.34H61.0052C60.9692 56.2 60.2372 55.312 59.1092 55.312C58.0052 55.312 57.1652 56.272 57.1412 57.34ZM65.6309 61.18C63.9869 61.18 62.9549 60.328 62.8109 58.828L63.7229 58.66C63.9149 59.824 64.4669 60.304 65.6309 60.304C66.4949 60.304 67.0349 59.872 67.0349 59.296C67.0349 58.792 66.6509 58.516 65.2829 58.108C63.6869 57.628 63.1109 57.172 63.1109 56.284C63.1109 55.276 64.0349 54.46 65.2709 54.46C66.6029 54.46 67.5509 55.192 67.7909 56.356L66.8789 56.56C66.6629 55.756 66.1349 55.336 65.2709 55.336C64.5629 55.336 64.0469 55.756 64.0469 56.248C64.0469 56.692 64.4309 56.92 65.5949 57.28C67.3709 57.832 67.9829 58.336 67.9829 59.296C67.9829 60.388 67.0469 61.18 65.6309 61.18ZM71.5372 61.18C69.8932 61.18 68.8612 60.328 68.7172 58.828L69.6292 58.66C69.8212 59.824 70.3732 60.304 71.5372 60.304C72.4012 60.304 72.9412 59.872 72.9412 59.296C72.9412 58.792 72.5572 58.516 71.1892 58.108C69.5932 57.628 69.0172 57.172 69.0172 56.284C69.0172 55.276 69.9412 54.46 71.1772 54.46C72.5092 54.46 73.4572 55.192 73.6972 56.356L72.7852 56.56C72.5692 55.756 72.0412 55.336 71.1772 55.336C70.4692 55.336 69.9532 55.756 69.9532 56.248C69.9532 56.692 70.3372 56.92 71.5012 57.28C73.2772 57.832 73.8892 58.336 73.8892 59.296C73.8892 60.388 72.9532 61.18 71.5372 61.18ZM81.0046 54.64V55.48H79.4446V59.548C79.4446 59.956 79.6126 60.124 80.1406 60.124H80.6686V61H80.0686C78.9166 61 78.5086 60.616 78.5086 59.536V55.48H77.5486V54.64H78.5086V53.2H79.4446V54.64H81.0046ZM84.54 61.18C82.74 61.18 81.552 59.824 81.552 57.82C81.552 55.816 82.74 54.46 84.54 54.46C86.34 54.46 87.54 55.816 87.54 57.82C87.54 59.824 86.34 61.18 84.54 61.18ZM84.54 60.304C85.8 60.304 86.604 59.332 86.604 57.82C86.604 56.308 85.8 55.336 84.54 55.336C83.28 55.336 82.488 56.308 82.488 57.82C82.488 59.332 83.28 60.304 84.54 60.304ZM94.3301 61.18C92.6861 61.18 91.6541 60.328 91.5101 58.828L92.4221 58.66C92.6141 59.824 93.1661 60.304 94.3301 60.304C95.1941 60.304 95.7341 59.872 95.7341 59.296C95.7341 58.792 95.3501 58.516 93.9821 58.108C92.3861 57.628 91.8101 57.172 91.8101 56.284C91.8101 55.276 92.7341 54.46 93.9701 54.46C95.3021 54.46 96.2501 55.192 96.4901 56.356L95.5781 56.56C95.3621 55.756 94.8341 55.336 93.9701 55.336C93.2621 55.336 92.7461 55.756 92.7461 56.248C92.7461 56.692 93.1301 56.92 94.2941 57.28C96.0701 57.832 96.6821 58.336 96.6821 59.296C96.6821 60.388 95.7461 61.18 94.3301 61.18ZM100.594 61.18C98.8296 61.18 97.6536 59.824 97.6536 57.82C97.6536 55.816 98.8416 54.46 100.594 54.46C102.31 54.46 103.438 55.732 103.438 57.616V58.096H98.6016C98.6256 59.308 99.3936 60.328 100.57 60.328C101.47 60.328 101.974 59.992 102.514 59.056L103.294 59.524C102.742 60.616 101.818 61.18 100.594 61.18ZM98.6256 57.34H102.49C102.454 56.2 101.722 55.312 100.594 55.312C99.4896 55.312 98.6496 56.272 98.6256 57.34ZM105.708 61H104.772V52.24H105.708V61ZM109.98 61.18C108.216 61.18 107.04 59.824 107.04 57.82C107.04 55.816 108.228 54.46 109.98 54.46C111.696 54.46 112.824 55.732 112.824 57.616V58.096H107.988C108.012 59.308 108.78 60.328 109.956 60.328C110.856 60.328 111.36 59.992 111.9 59.056L112.68 59.524C112.128 60.616 111.204 61.18 109.98 61.18ZM108.012 57.34H111.876C111.84 56.2 111.108 55.312 109.98 55.312C108.876 55.312 108.036 56.272 108.012 57.34ZM116.742 61.18C115.002 61.18 113.802 59.824 113.802 57.82C113.802 55.816 115.002 54.46 116.742 54.46C118.206 54.46 119.274 55.36 119.514 56.776L118.602 56.968C118.422 55.924 117.738 55.336 116.742 55.336C115.542 55.336 114.738 56.32 114.738 57.82C114.738 59.32 115.542 60.304 116.742 60.304C117.738 60.304 118.422 59.716 118.602 58.672L119.514 58.864C119.274 60.28 118.206 61.18 116.742 61.18ZM123.591 54.64V55.48H122.031V59.548C122.031 59.956 122.199 60.124 122.727 60.124H123.255V61H122.655C121.503 61 121.095 60.616 121.095 59.536V55.48H120.135V54.64H121.095V53.2H122.031V54.64H123.591Z" fill="#616E7A"/>
</g>
<g filter="url(#filter3_d_44_19016)">
<rect x="177.5" y="0.5" width="163" height="79" rx="12.5" fill="#F4F5F7" stroke="#E2E5E9"/>
<path d="M178 13C178 6.37259 183.373 1 190 1H328C334.627 1 340 6.37258 340 13V62.9998C340 68.5226 335.523 72.9998 330 72.9998H188C182.477 72.9998 178 68.5227 178 62.9998V13Z" fill="#F9FAFB"/>
<g filter="url(#filter4_i_44_19016)">
<path d="M178 13C178 6.37259 183.373 1 190 1H328C334.627 1 340 6.37258 340 13V62.9998C340 68.5226 335.523 72.9998 330 72.9998H188C182.477 72.9998 178 68.5227 178 62.9998V13Z" fill="url(#paint4_linear_44_19016)"/>
</g>
<path d="M178.5 62.9998C178.5 68.2465 182.753 72.4998 188 72.4998H330C335.247 72.4998 339.5 68.2465 339.5 62.9998V13C339.5 6.64875 334.351 1.50002 328 1.50002H190C183.649 1.50002 178.5 6.64874 178.5 13V62.9998Z" stroke="url(#paint5_linear_44_19016)"/>
<g filter="url(#filter5_d_44_19016)">
<rect x="190" y="13" width="32" height="32" rx="16" fill="url(#paint6_linear_44_19016)" shape-rendering="crispEdges"/>
<rect x="190.225" y="13.225" width="31.55" height="31.55" rx="15.775" stroke="url(#paint7_linear_44_19016)" stroke-width="0.45" shape-rendering="crispEdges"/>
<g clip-path="url(#clip0_44_19016)">
<path d="M213.314 20.6V37.1L199.184 37.43L198.2 21.374L213.314 20.6Z" fill="#C9C9C9"/>
<path d="M210.032 22.91V30.236H200.438L199.79 23.312L200.642 23.276L203.48 23.168L210.032 22.91Z" fill="#4127FF"/>
<path d="M213.314 22.73V25.178H211.364V22.916L213.314 22.73Z" fill="#4127FF"/>
<path d="M213.314 26.162V28.61H211.364V26.342L213.314 26.162Z" fill="#4127FF"/>
<path d="M200.516 32.2581H211.97V35.4141H200.84L200.516 32.2581Z" fill="#9C9C9C"/>
<path d="M201.638 33.8361H211.16" stroke="#1A2596" stroke-width="1.55" stroke-miterlimit="10"/>
</g>
</g>
<path d="M230.746 34.21C228.212 34.21 226.574 32.208 226.574 29.1C226.574 26.02 228.226 23.99 230.746 23.99C232.79 23.99 234.274 25.348 234.54 27.434L233.126 27.672C232.86 26.146 232.048 25.334 230.746 25.334C229.052 25.334 228.016 26.762 228.016 29.1C228.016 31.452 229.038 32.866 230.746 32.866C232.118 32.866 232.93 31.998 233.126 30.318L234.568 30.528C234.372 32.796 232.916 34.21 230.746 34.21ZM238.116 34.21C236.632 34.21 235.68 33.37 235.68 32.068C235.68 30.822 236.408 30.164 238.298 29.716C239.642 29.38 240.062 29.1 240.062 28.568C240.062 27.966 239.544 27.574 238.704 27.574C237.794 27.574 237.164 28.12 236.982 29.044L235.652 28.764C235.904 27.308 237.108 26.37 238.704 26.37C240.426 26.37 241.49 27.336 241.49 28.904V34H240.23V33.286H240.202C239.74 33.874 238.984 34.21 238.116 34.21ZM238.284 32.978C239.362 32.978 240.132 32.362 240.132 31.494V30.024H240.104C239.964 30.346 239.53 30.57 238.648 30.808C237.472 31.102 237.024 31.424 237.024 31.984C237.024 32.628 237.472 32.978 238.284 32.978ZM246.078 34.21C244.132 34.21 242.928 33.23 242.704 31.508L243.992 31.228C244.23 32.474 244.818 32.992 246.078 32.992C246.96 32.992 247.52 32.572 247.52 31.984C247.52 31.466 247.1 31.186 245.56 30.71C243.754 30.164 243.068 29.604 243.068 28.526C243.068 27.322 244.202 26.37 245.686 26.37C247.24 26.37 248.402 27.238 248.71 28.568L247.422 28.904C247.17 28.036 246.596 27.588 245.686 27.588C244.944 27.588 244.44 28.008 244.44 28.498C244.44 28.946 244.79 29.156 246.134 29.576C248.122 30.206 248.906 30.808 248.906 31.984C248.906 33.286 247.758 34.21 246.078 34.21ZM251.564 34H250.192V23.78H251.564V27.238H251.592C252.012 26.72 252.81 26.37 253.594 26.37C255.288 26.37 256.394 27.476 256.394 29.17V34H255.022V29.422C255.022 28.316 254.392 27.644 253.328 27.644C252.264 27.644 251.564 28.358 251.564 29.422V34ZM265.363 34.21C262.843 34.21 261.191 32.18 261.191 29.1C261.191 26.02 262.843 23.99 265.363 23.99C267.883 23.99 269.549 26.02 269.549 29.1C269.549 32.18 267.883 34.21 265.363 34.21ZM265.363 32.866C267.071 32.866 268.107 31.438 268.107 29.1C268.107 26.762 267.071 25.334 265.363 25.334C263.669 25.334 262.633 26.762 262.633 29.1C262.633 31.438 263.669 32.866 265.363 32.866ZM273.535 34.21C271.869 34.21 270.903 33.188 270.903 31.41V26.58H272.275V31.158C272.275 32.362 272.821 32.936 273.941 32.936C274.977 32.936 275.635 32.236 275.635 31.158V26.58H277.007V34H275.691V33.342H275.663C275.201 33.874 274.403 34.21 273.535 34.21ZM282.435 26.58V27.812H280.615V32.04C280.615 32.516 280.797 32.698 281.413 32.698H282.085V34H281.301C279.789 34 279.243 33.482 279.243 32.068V27.812H278.081V26.58H279.243V24.844H280.615V26.58H282.435Z" fill="#1E2225"/>
<path d="M195.808 61H191.032V52.6H192.016V60.064H195.808V61ZM199.645 61.18C197.845 61.18 196.657 59.824 196.657 57.82C196.657 55.816 197.845 54.46 199.645 54.46C201.445 54.46 202.645 55.816 202.645 57.82C202.645 59.824 201.445 61.18 199.645 61.18ZM199.645 60.304C200.905 60.304 201.709 59.332 201.709 57.82C201.709 56.308 200.905 55.336 199.645 55.336C198.385 55.336 197.593 56.308 197.593 57.82C197.593 59.332 198.385 60.304 199.645 60.304ZM204.912 61H203.976V54.64H204.888V55.228H204.912C205.296 54.772 206.016 54.46 206.7 54.46C208.176 54.46 209.112 55.408 209.112 56.884V61H208.176V57.004C208.176 55.972 207.576 55.336 206.592 55.336C205.584 55.336 204.912 56.02 204.912 57.004V61ZM213.5 63.88C212.276 63.88 211.316 63.232 210.92 62.14L211.772 61.756C212.156 62.656 212.636 63.016 213.5 63.016C214.532 63.016 215.144 62.296 215.144 61.132V60.328H215.12C214.748 60.88 214.076 61.18 213.236 61.18C211.556 61.18 210.392 59.788 210.392 57.82C210.392 55.84 211.556 54.46 213.248 54.46C213.992 54.46 214.688 54.772 215.12 55.312H215.144V54.64H216.08V61.192C216.08 62.8 215.06 63.88 213.5 63.88ZM213.308 60.304C214.328 60.304 215.144 59.464 215.144 58.432V57.196C215.144 56.164 214.316 55.336 213.248 55.336C212.096 55.336 211.328 56.332 211.328 57.82C211.328 59.32 212.108 60.304 213.308 60.304ZM221.775 63.7H220.839V54.64H221.775V55.312H221.799C222.207 54.808 222.879 54.46 223.659 54.46C225.339 54.46 226.527 55.828 226.527 57.82C226.527 59.812 225.339 61.18 223.683 61.18C222.891 61.18 222.195 60.844 221.799 60.364H221.775V63.7ZM223.611 60.304C224.811 60.304 225.591 59.32 225.591 57.82C225.591 56.32 224.811 55.336 223.659 55.336C222.603 55.336 221.775 56.164 221.775 57.196V58.432C221.775 59.476 222.603 60.304 223.611 60.304ZM228.806 61H227.87V54.64H228.758V55.168H228.782C229.022 54.772 229.49 54.532 230.102 54.532C230.33 54.532 230.522 54.568 230.738 54.628L230.534 55.6C230.306 55.528 230.126 55.492 229.91 55.492C229.178 55.492 228.806 55.984 228.806 57.184V61ZM234.109 61.18C232.345 61.18 231.169 59.824 231.169 57.82C231.169 55.816 232.357 54.46 234.109 54.46C235.825 54.46 236.953 55.732 236.953 57.616V58.096H232.117C232.141 59.308 232.909 60.328 234.085 60.328C234.985 60.328 235.489 59.992 236.029 59.056L236.809 59.524C236.257 60.616 235.333 61.18 234.109 61.18ZM232.141 57.34H236.005C235.969 56.2 235.237 55.312 234.109 55.312C233.005 55.312 232.165 56.272 232.141 57.34ZM240.631 61.18C238.987 61.18 237.955 60.328 237.811 58.828L238.723 58.66C238.915 59.824 239.467 60.304 240.631 60.304C241.495 60.304 242.035 59.872 242.035 59.296C242.035 58.792 241.651 58.516 240.283 58.108C238.687 57.628 238.111 57.172 238.111 56.284C238.111 55.276 239.035 54.46 240.271 54.46C241.603 54.46 242.551 55.192 242.791 56.356L241.879 56.56C241.663 55.756 241.135 55.336 240.271 55.336C239.563 55.336 239.047 55.756 239.047 56.248C239.047 56.692 239.431 56.92 240.595 57.28C242.371 57.832 242.983 58.336 242.983 59.296C242.983 60.388 242.047 61.18 240.631 61.18ZM246.537 61.18C244.893 61.18 243.861 60.328 243.717 58.828L244.629 58.66C244.821 59.824 245.373 60.304 246.537 60.304C247.401 60.304 247.941 59.872 247.941 59.296C247.941 58.792 247.557 58.516 246.189 58.108C244.593 57.628 244.017 57.172 244.017 56.284C244.017 55.276 244.941 54.46 246.177 54.46C247.509 54.46 248.457 55.192 248.697 56.356L247.785 56.56C247.569 55.756 247.041 55.336 246.177 55.336C245.469 55.336 244.953 55.756 244.953 56.248C244.953 56.692 245.337 56.92 246.501 57.28C248.277 57.832 248.889 58.336 248.889 59.296C248.889 60.388 247.953 61.18 246.537 61.18ZM256.005 54.64V55.48H254.445V59.548C254.445 59.956 254.613 60.124 255.141 60.124H255.669V61H255.069C253.917 61 253.509 60.616 253.509 59.536V55.48H252.549V54.64H253.509V53.2H254.445V54.64H256.005ZM259.54 61.18C257.74 61.18 256.552 59.824 256.552 57.82C256.552 55.816 257.74 54.46 259.54 54.46C261.34 54.46 262.54 55.816 262.54 57.82C262.54 59.824 261.34 61.18 259.54 61.18ZM259.54 60.304C260.8 60.304 261.604 59.332 261.604 57.82C261.604 56.308 260.8 55.336 259.54 55.336C258.28 55.336 257.488 56.308 257.488 57.82C257.488 59.332 258.28 60.304 259.54 60.304ZM269.33 61.18C267.686 61.18 266.654 60.328 266.51 58.828L267.422 58.66C267.614 59.824 268.166 60.304 269.33 60.304C270.194 60.304 270.734 59.872 270.734 59.296C270.734 58.792 270.35 58.516 268.982 58.108C267.386 57.628 266.81 57.172 266.81 56.284C266.81 55.276 267.734 54.46 268.97 54.46C270.302 54.46 271.25 55.192 271.49 56.356L270.578 56.56C270.362 55.756 269.834 55.336 268.97 55.336C268.262 55.336 267.746 55.756 267.746 56.248C267.746 56.692 268.13 56.92 269.294 57.28C271.07 57.832 271.682 58.336 271.682 59.296C271.682 60.388 270.746 61.18 269.33 61.18ZM275.594 61.18C273.83 61.18 272.654 59.824 272.654 57.82C272.654 55.816 273.842 54.46 275.594 54.46C277.31 54.46 278.438 55.732 278.438 57.616V58.096H273.602C273.626 59.308 274.394 60.328 275.57 60.328C276.47 60.328 276.974 59.992 277.514 59.056L278.294 59.524C277.742 60.616 276.818 61.18 275.594 61.18ZM273.626 57.34H277.49C277.454 56.2 276.722 55.312 275.594 55.312C274.49 55.312 273.65 56.272 273.626 57.34ZM280.708 61H279.772V52.24H280.708V61ZM284.98 61.18C283.216 61.18 282.04 59.824 282.04 57.82C282.04 55.816 283.228 54.46 284.98 54.46C286.696 54.46 287.824 55.732 287.824 57.616V58.096H282.988C283.012 59.308 283.78 60.328 284.956 60.328C285.856 60.328 286.36 59.992 286.9 59.056L287.68 59.524C287.128 60.616 286.204 61.18 284.98 61.18ZM283.012 57.34H286.876C286.84 56.2 286.108 55.312 284.98 55.312C283.876 55.312 283.036 56.272 283.012 57.34ZM291.742 61.18C290.002 61.18 288.802 59.824 288.802 57.82C288.802 55.816 290.002 54.46 291.742 54.46C293.206 54.46 294.274 55.36 294.514 56.776L293.602 56.968C293.422 55.924 292.738 55.336 291.742 55.336C290.542 55.336 289.738 56.32 289.738 57.82C289.738 59.32 290.542 60.304 291.742 60.304C292.738 60.304 293.422 59.716 293.602 58.672L294.514 58.864C294.274 60.28 293.206 61.18 291.742 61.18ZM298.591 54.64V55.48H297.031V59.548C297.031 59.956 297.199 60.124 297.727 60.124H298.255V61H297.655C296.503 61 296.095 60.616 296.095 59.536V55.48H295.135V54.64H296.095V53.2H297.031V54.64H298.591Z" fill="#616E7A"/>
</g>
<g filter="url(#filter6_d_44_19016)">
<rect x="1.5" y="92.5" width="79" height="79" rx="12.5" fill="#F4F5F7" stroke="#E2E5E9"/>
<path d="M2 105C2 98.3726 7.37258 93 14 93H68C74.6274 93 80 98.3726 80 105V155C80 160.523 75.5229 165 70 165H12C6.47715 165 2 160.523 2 155V105Z" fill="#F9FAFB"/>
<g filter="url(#filter7_i_44_19016)">
<path d="M2 105C2 98.3726 7.37258 93 14 93H68C74.6274 93 80 98.3726 80 105V155C80 160.523 75.5229 165 70 165H12C6.47715 165 2 160.523 2 155V105Z" fill="url(#paint8_linear_44_19016)"/>
</g>
<path d="M2.5 155C2.5 160.247 6.7533 164.5 12 164.5H70C75.2467 164.5 79.5 160.247 79.5 155V105C79.5 98.6487 74.3513 93.5 68 93.5H14C7.64873 93.5 2.5 98.6487 2.5 105V155Z" stroke="url(#paint9_linear_44_19016)"/>
<g filter="url(#filter8_d_44_19016)">
<rect x="14" y="105" width="32" height="32" rx="16" fill="url(#paint10_linear_44_19016)" shape-rendering="crispEdges"/>
<rect x="14.225" y="105.225" width="31.55" height="31.55" rx="15.775" stroke="url(#paint11_linear_44_19016)" stroke-width="0.45" shape-rendering="crispEdges"/>
<path d="M22.2422 121.744C22.2422 121.744 22.3322 121.552 22.5722 121.528C22.8122 121.504 24.1142 121.528 24.1142 121.528V122.638H22.2422V121.75V121.744Z" fill="#AF4E39"/>
<path d="M34.4697 127.006H23.7297V117.046H36.0117C36.0117 117.046 36.8337 117.124 37.0557 117.55C37.2777 117.976 37.0557 118.594 37.0557 118.594V127.006H34.4697Z" fill="#DA6450"/>
<path d="M26.9163 112.6L35.0583 112.732V121.186H27.2403L26.9163 112.6Z" fill="#008570"/>
<path d="M30.9963 121.486C32.4212 121.486 33.5763 120.457 33.5763 119.188C33.5763 117.919 32.4212 116.89 30.9963 116.89C29.5714 116.89 28.4163 117.919 28.4163 119.188C28.4163 120.457 29.5714 121.486 30.9963 121.486Z" fill="#23B175"/>
<path d="M25.1221 119.104H35.8681C35.8681 119.104 36.6481 119.038 36.8941 118.756C37.1401 118.474 37.1581 118.018 37.1581 118.018V127.612C37.1581 127.612 36.9181 128.542 36.1381 128.866C35.5141 129.124 35.0521 129.1 35.0521 129.1H25.1221V119.104Z" fill="#F98860"/>
<path d="M22.2 124.864H25.866C25.866 124.864 26.472 124.756 26.472 123.652C26.472 122.782 25.938 122.566 25.938 122.566H22.788C22.788 122.566 22.332 122.578 22.29 122.242C22.248 121.906 22.242 121.738 22.242 121.738L22.2 124.858V124.864Z" fill="#FFB897"/>
<path d="M25.1997 124.408C25.6073 124.408 25.9377 124.078 25.9377 123.67C25.9377 123.262 25.6073 122.932 25.1997 122.932C24.7921 122.932 24.4617 123.262 24.4617 123.67C24.4617 124.078 24.7921 124.408 25.1997 124.408Z" fill="white"/>
</g>
<path d="M18.886 156H17.444V147.544H14.448V146.2H21.854V147.544H18.886V156ZM22.6108 156H21.2388V148.58H22.5268V149.196H22.5548C22.8488 148.734 23.4088 148.454 24.1088 148.454C24.4168 148.454 24.6688 148.496 24.9348 148.566L24.6688 149.938C24.3748 149.854 24.1508 149.812 23.8988 149.812C23.0448 149.812 22.6108 150.386 22.6108 151.688V156ZM27.7021 156.21C26.2181 156.21 25.2661 155.37 25.2661 154.068C25.2661 152.822 25.9941 152.164 27.8841 151.716C29.2281 151.38 29.6481 151.1 29.6481 150.568C29.6481 149.966 29.1301 149.574 28.2901 149.574C27.3801 149.574 26.7501 150.12 26.5681 151.044L25.2381 150.764C25.4901 149.308 26.6941 148.37 28.2901 148.37C30.0121 148.37 31.0761 149.336 31.0761 150.904V156H29.8161V155.286H29.7881C29.3261 155.874 28.5701 156.21 27.7021 156.21ZM27.8701 154.978C28.9481 154.978 29.7181 154.362 29.7181 153.494V152.024H29.6901C29.5501 152.346 29.1161 152.57 28.2341 152.808C27.0581 153.102 26.6101 153.424 26.6101 153.984C26.6101 154.628 27.0581 154.978 27.8701 154.978ZM34.0815 156H32.7095V148.58H34.0255V149.238H34.0535C34.5015 148.72 35.3275 148.37 36.1115 148.37C37.8055 148.37 38.9115 149.476 38.9115 151.212V156H37.5395V151.422C37.5395 150.316 36.9095 149.644 35.8455 149.644C34.7815 149.644 34.0815 150.358 34.0815 151.422V156ZM43.4975 156.21C41.5515 156.21 40.3475 155.23 40.1235 153.508L41.4115 153.228C41.6495 154.474 42.2375 154.992 43.4975 154.992C44.3795 154.992 44.9395 154.572 44.9395 153.984C44.9395 153.466 44.5195 153.186 42.9795 152.71C41.1735 152.164 40.4875 151.604 40.4875 150.526C40.4875 149.322 41.6215 148.37 43.1055 148.37C44.6595 148.37 45.8215 149.238 46.1295 150.568L44.8415 150.904C44.5895 150.036 44.0155 149.588 43.1055 149.588C42.3635 149.588 41.8595 150.008 41.8595 150.498C41.8595 150.946 42.2095 151.156 43.5535 151.576C45.5415 152.206 46.3255 152.808 46.3255 153.984C46.3255 155.286 45.1775 156.21 43.4975 156.21ZM49.3964 156H48.0244V149.812H46.7084V148.58H48.0244V147.782C48.0244 146.732 48.6964 146.06 49.8864 146.06H51.0764V147.32H50.0404C49.6064 147.32 49.3964 147.516 49.3964 147.95V148.58H51.3144V149.812H49.3964V156ZM55.2468 156.21C53.1748 156.21 51.7888 154.628 51.7888 152.29C51.7888 149.966 53.1888 148.37 55.2328 148.37C57.2628 148.37 58.5928 149.882 58.5928 152.122V152.696H53.1748C53.2168 153.984 54.0008 154.992 55.2328 154.992C56.1708 154.992 56.7308 154.628 57.3468 153.634L58.4108 154.348C57.7528 155.58 56.6608 156.21 55.2468 156.21ZM53.2028 151.646H57.2348C57.1788 150.456 56.4228 149.588 55.2328 149.588C54.0988 149.588 53.2308 150.526 53.2028 151.646ZM61.3979 156H60.0259V148.58H61.3139V149.196H61.3419C61.6359 148.734 62.1959 148.454 62.8959 148.454C63.2039 148.454 63.4559 148.496 63.7219 148.566L63.4559 149.938C63.1619 149.854 62.9379 149.812 62.6859 149.812C61.8319 149.812 61.3979 150.386 61.3979 151.688V156Z" fill="#1E2225"/>
</g>
<g filter="url(#filter9_d_44_19016)">
<rect x="88.5" y="92.5" width="79" height="79" rx="12.5" fill="#F4F5F7" stroke="#E2E5E9"/>
<path d="M89 105C89 98.3726 94.3726 93 101 93H155C161.627 93 167 98.3726 167 105V155C167 160.523 162.523 165 157 165H99C93.4772 165 89 160.523 89 155V105Z" fill="#F9FAFB"/>
<g filter="url(#filter10_i_44_19016)">
<path d="M89 105C89 98.3726 94.3726 93 101 93H155C161.627 93 167 98.3726 167 105V155C167 160.523 162.523 165 157 165H99C93.4772 165 89 160.523 89 155V105Z" fill="url(#paint12_linear_44_19016)"/>
</g>
<path d="M89.5 155C89.5 160.247 93.7533 164.5 99 164.5H157C162.247 164.5 166.5 160.247 166.5 155V105C166.5 98.6487 161.351 93.5 155 93.5H101C94.6487 93.5 89.5 98.6487 89.5 105V155Z" stroke="url(#paint13_linear_44_19016)"/>
<g clip-path="url(#clip1_44_19016)">
<rect x="101" y="105" width="32" height="32" rx="16" fill="#E2E5E9"/>
<g clip-path="url(#clip2_44_19016)">
<rect x="101" y="105" width="32" height="32" rx="16" fill="white"/>
<rect opacity="0.24" x="101" y="105" width="32" height="32" rx="16" fill="#0E64E8"/>
<g clip-path="url(#clip3_44_19016)">
<path fill-rule="evenodd" clip-rule="evenodd" d="M124.348 115.293C119.449 115.435 114.551 115.435 109.652 115.293C108.684 115.265 107.856 114.696 107.706 113.933C107.654 113.667 107.654 113.401 107.706 113.135C107.856 112.37 108.684 111.802 109.652 111.774C114.551 111.631 119.449 111.631 124.348 111.774C125.316 111.802 126.144 112.37 126.294 113.135C126.346 113.401 126.346 113.667 126.294 113.933C126.144 114.696 125.316 115.265 124.348 115.293ZM123.364 116.8H122.449H121.681H112.319H111.757H110.636C110.366 120.475 110.413 124.149 110.815 127.825C110.957 129.13 111.988 130.198 113.374 130.459C114.583 130.686 115.792 130.8 117 130.8C118.209 130.8 119.417 130.686 120.626 130.459C122.012 130.198 123.043 129.13 123.186 127.825C123.587 124.149 123.634 120.475 123.364 116.8ZM117 119.6C117.479 119.6 117.873 119.96 117.927 120.424L117.933 120.533V124.667L118.745 124.009C119.145 123.684 119.733 123.745 120.058 124.145C120.358 124.514 120.329 125.044 120.008 125.378L119.922 125.458L117.649 127.304C117.307 127.583 116.827 127.607 116.455 127.376L116.357 127.306L114.079 125.458C113.678 125.133 113.617 124.546 113.942 124.145C114.242 123.776 114.766 123.695 115.159 123.94L115.255 124.008L116.067 124.668V120.533C116.067 120.018 116.485 119.6 117 119.6Z" fill="#0E64E8"/>
</g>
</g>
<rect x="101.5" y="105.5" width="31" height="31" rx="15.5" fill="url(#paint14_linear_44_19016)"/>
<rect x="101.5" y="105.5" width="31" height="31" rx="15.5" stroke="url(#paint15_linear_44_19016)"/>
</g>
<path d="M103.576 156H102.134V146.2H105.998C108.07 146.2 109.302 147.376 109.302 149.28C109.302 151.198 108.07 152.346 105.984 152.346H103.576V156ZM103.576 147.544V151.002H105.928C107.216 151.002 107.86 150.428 107.86 149.28C107.86 148.104 107.23 147.544 105.942 147.544H103.576ZM113.029 156.21C111.363 156.21 110.397 155.188 110.397 153.41V148.58H111.769V153.158C111.769 154.362 112.315 154.936 113.435 154.936C114.471 154.936 115.129 154.236 115.129 153.158V148.58H116.501V156H115.185V155.342H115.157C114.695 155.874 113.897 156.21 113.029 156.21ZM119.578 156H118.206V145.78H119.578V156ZM124.222 156.21C122.276 156.21 121.072 155.23 120.848 153.508L122.136 153.228C122.374 154.474 122.962 154.992 124.222 154.992C125.104 154.992 125.664 154.572 125.664 153.984C125.664 153.466 125.244 153.186 123.704 152.71C121.898 152.164 121.212 151.604 121.212 150.526C121.212 149.322 122.346 148.37 123.83 148.37C125.384 148.37 126.546 149.238 126.854 150.568L125.566 150.904C125.314 150.036 124.74 149.588 123.83 149.588C123.088 149.588 122.584 150.008 122.584 150.498C122.584 150.946 122.934 151.156 124.278 151.576C126.266 152.206 127.05 152.808 127.05 153.984C127.05 155.286 125.902 156.21 124.222 156.21ZM130.52 156.21C129.036 156.21 128.084 155.37 128.084 154.068C128.084 152.822 128.812 152.164 130.702 151.716C132.046 151.38 132.466 151.1 132.466 150.568C132.466 149.966 131.948 149.574 131.108 149.574C130.198 149.574 129.568 150.12 129.386 151.044L128.056 150.764C128.308 149.308 129.512 148.37 131.108 148.37C132.83 148.37 133.894 149.336 133.894 150.904V156H132.634V155.286H132.606C132.144 155.874 131.388 156.21 130.52 156.21ZM130.688 154.978C131.766 154.978 132.536 154.362 132.536 153.494V152.024H132.508C132.368 152.346 131.934 152.57 131.052 152.808C129.876 153.102 129.428 153.424 129.428 153.984C129.428 154.628 129.876 154.978 130.688 154.978Z" fill="#1E2225"/>
</g>
<g filter="url(#filter11_d_44_19016)">
<rect x="176.5" y="92.5" width="79" height="79" rx="12.5" fill="#F4F5F7" stroke="#E2E5E9"/>
<path d="M177 105C177 98.3726 182.373 93 189 93H243C249.627 93 255 98.3726 255 105V155C255 160.523 250.523 165 245 165H187C181.477 165 177 160.523 177 155V105Z" fill="#F9FAFB"/>
<g filter="url(#filter12_i_44_19016)">
<path d="M177 105C177 98.3726 182.373 93 189 93H243C249.627 93 255 98.3726 255 105V155C255 160.523 250.523 165 245 165H187C181.477 165 177 160.523 177 155V105Z" fill="url(#paint16_linear_44_19016)"/>
</g>
<path d="M177.5 155C177.5 160.247 181.753 164.5 187 164.5H245C250.247 164.5 254.5 160.247 254.5 155V105C254.5 98.6487 249.351 93.5 243 93.5H189C182.649 93.5 177.5 98.6487 177.5 105V155Z" stroke="url(#paint17_linear_44_19016)"/>
<g filter="url(#filter13_d_44_19016)">
<g clip-path="url(#clip4_44_19016)">
<rect x="189" y="105" width="24" height="24" rx="12" fill="url(#paint18_linear_44_19016)" shape-rendering="crispEdges"/>
<path fill-rule="evenodd" clip-rule="evenodd" d="M201 105C207.628 105 213 110.372 213 117C213 123.628 207.628 129 201 129C194.372 129 189 123.628 189 117C189 110.372 194.372 105 201 105Z" fill="#00AED6"/>
<path fill-rule="evenodd" clip-rule="evenodd" d="M205.5 118.306V118.752C205.5 119.026 205.275 119.252 205 119.252C204.725 119.252 204.5 119.026 204.5 118.752V118.306C204.345 118.171 204.25 117.971 204.25 117.752C204.25 117.337 204.585 117.002 205 117.002C205.415 117.002 205.75 117.337 205.75 117.752C205.75 117.971 205.655 118.171 205.5 118.306ZM207.99 116.627C207.885 115.096 206.635 113.951 205.08 114.002H197.5C197.225 114.002 197 113.776 197 113.502C197 113.226 197.225 113.002 197.5 113.002H205.18C205.13 112.016 204.38 110.946 203.43 110.796C201.175 110.401 198.92 110.401 196.665 110.796C195.415 110.996 194.465 112.232 194.265 113.466C193.91 115.837 193.91 118.206 194.265 120.571C194.465 121.857 195.7 123.096 197 123.241C199.805 123.587 202.61 123.587 205.365 123.241C206.615 123.096 207.435 121.956 207.685 120.721C207.935 119.341 208.04 117.956 207.99 116.627Z" fill="white"/>
<circle cx="201" cy="117" r="11.75" fill="url(#paint19_linear_44_19016)" stroke="#E2E5E9" stroke-width="0.5"/>
</g>
</g>
<path d="M197.89 143.1C197.89 144.514 197.54 145.718 196.91 146.6L197.82 147.566L197.106 148.21L196.266 147.314C195.594 147.888 194.74 148.21 193.76 148.21C191.282 148.21 189.63 146.166 189.63 143.1C189.63 140.034 191.282 137.99 193.76 137.99C196.238 137.99 197.89 140.034 197.89 143.1ZM193.76 147.118C194.446 147.118 195.034 146.908 195.51 146.502L193.48 144.332L194.208 143.688L196.126 145.746C196.518 145.074 196.728 144.178 196.728 143.1C196.728 140.622 195.594 139.082 193.76 139.082C191.926 139.082 190.792 140.622 190.792 143.1C190.792 145.578 191.926 147.118 193.76 147.118ZM204.102 143.94V143.968L206.258 148H204.9L202.828 144.024H200.868V148H199.72V138.2H203.29C205.334 138.2 206.552 139.292 206.552 141.098C206.552 142.652 205.642 143.688 204.102 143.94ZM200.868 139.292V142.932H203.192C204.634 142.932 205.39 142.302 205.39 141.098C205.39 139.908 204.648 139.292 203.192 139.292H200.868ZM209.399 148H208.251V138.2H209.399V148ZM215.124 148.21C212.73 148.21 211.302 146.992 211.092 144.752L212.24 144.556C212.436 146.292 213.36 147.118 215.138 147.118C216.496 147.118 217.392 146.488 217.392 145.536C217.392 144.542 216.734 143.996 214.69 143.352C212.352 142.582 211.568 141.896 211.568 140.58C211.568 139.054 212.856 137.99 214.704 137.99C216.552 137.99 217.938 139.096 218.26 140.846L217.126 141.084C216.818 139.782 215.964 139.082 214.69 139.082C213.5 139.082 212.716 139.67 212.716 140.58C212.716 141.336 213.276 141.742 215.068 142.302C217.616 143.128 218.54 143.982 218.54 145.522C218.54 147.118 217.154 148.21 215.124 148.21Z" fill="#1E2225"/>
</g>
<g filter="url(#filter14_d_44_19016)">
<rect x="264.5" y="92.5" width="79" height="79" rx="12.5" fill="#F4F5F7" stroke="#E2E5E9"/>
<path d="M265 105C265 98.3726 270.373 93 277 93H331C337.627 93 343 98.3726 343 105V155C343 160.523 338.523 165 333 165H275C269.477 165 265 160.523 265 155V105Z" fill="#F9FAFB"/>
<g filter="url(#filter15_i_44_19016)">
<path d="M265 105C265 98.3726 270.373 93 277 93H331C337.627 93 343 98.3726 343 105V155C343 160.523 338.523 165 333 165H275C269.477 165 265 160.523 265 155V105Z" fill="url(#paint20_linear_44_19016)"/>
</g>
<path d="M265.5 155C265.5 160.247 269.753 164.5 275 164.5H333C338.247 164.5 342.5 160.247 342.5 155V105C342.5 98.6487 337.351 93.5 331 93.5H277C270.649 93.5 265.5 98.6487 265.5 105V155Z" stroke="url(#paint21_linear_44_19016)"/>
<g filter="url(#filter16_d_44_19016)">
<g clip-path="url(#clip5_44_19016)">
<rect x="277" y="105" width="24" height="24" rx="12" fill="url(#paint22_linear_44_19016)" shape-rendering="crispEdges"/>
<path fill-rule="evenodd" clip-rule="evenodd" d="M289 105C295.628 105 301 110.372 301 117C301 123.628 295.628 129 289 129C282.372 129 277 123.628 277 117C277 110.372 282.372 105 289 105Z" fill="#00AED6"/>
<path fill-rule="evenodd" clip-rule="evenodd" d="M293.5 118.306V118.752C293.5 119.026 293.275 119.252 293 119.252C292.725 119.252 292.5 119.026 292.5 118.752V118.306C292.345 118.171 292.25 117.971 292.25 117.752C292.25 117.337 292.585 117.002 293 117.002C293.415 117.002 293.75 117.337 293.75 117.752C293.75 117.971 293.655 118.171 293.5 118.306ZM295.99 116.627C295.885 115.096 294.635 113.951 293.08 114.002H285.5C285.225 114.002 285 113.776 285 113.502C285 113.226 285.225 113.002 285.5 113.002H293.18C293.13 112.016 292.38 110.946 291.43 110.796C289.175 110.401 286.92 110.401 284.665 110.796C283.415 110.996 282.465 112.232 282.265 113.466C281.91 115.837 281.91 118.206 282.265 120.571C282.465 121.857 283.7 123.096 285 123.241C287.805 123.587 290.61 123.587 293.365 123.241C294.615 123.096 295.435 121.956 295.685 120.721C295.935 119.341 296.04 117.956 295.99 116.627Z" fill="white"/>
<circle cx="289" cy="117" r="11.75" fill="url(#paint23_linear_44_19016)" stroke="#E2E5E9" stroke-width="0.5"/>
</g>
</g>
<path d="M281.76 148.21C279.254 148.21 277.63 146.208 277.63 143.1C277.63 139.992 279.254 137.99 281.76 137.99C283.72 137.99 285.19 139.264 285.484 141.224L284.336 141.434C284.056 139.894 283.146 139.082 281.76 139.082C279.926 139.082 278.792 140.622 278.792 143.1C278.792 145.578 279.926 147.118 281.76 147.118C283.44 147.118 284.42 146.026 284.378 144.248H281.886V143.156H285.512V144.15C285.512 146.628 284.056 148.21 281.76 148.21ZM290.276 148.21C288.176 148.21 286.79 146.628 286.79 144.29C286.79 141.952 288.176 140.37 290.276 140.37C292.376 140.37 293.776 141.952 293.776 144.29C293.776 146.628 292.376 148.21 290.276 148.21ZM290.276 147.188C291.746 147.188 292.684 146.054 292.684 144.29C292.684 142.526 291.746 141.392 290.276 141.392C288.806 141.392 287.882 142.526 287.882 144.29C287.882 146.054 288.806 147.188 290.276 147.188ZM296.756 148H295.608V138.2H299.388C301.46 138.2 302.664 139.362 302.664 141.224C302.664 143.1 301.46 144.22 299.388 144.22H296.756V148ZM296.756 139.292V143.128H299.318C300.802 143.128 301.502 142.526 301.502 141.224C301.502 139.922 300.788 139.292 299.318 139.292H296.756ZM306.098 148.21C304.6 148.21 303.662 147.398 303.662 146.11C303.662 144.85 304.404 144.206 306.266 143.758C307.694 143.408 308.156 143.1 308.156 142.498C308.156 141.812 307.554 141.364 306.63 141.364C305.65 141.364 304.964 141.966 304.768 142.96L303.662 142.75C303.914 141.294 305.076 140.37 306.63 140.37C308.296 140.37 309.304 141.294 309.304 142.778V148H308.282V147.216H308.254C307.806 147.832 306.994 148.21 306.098 148.21ZM306.182 147.188C307.372 147.188 308.212 146.474 308.212 145.494V143.828H308.184C308.03 144.192 307.554 144.444 306.56 144.696C305.258 145.032 304.754 145.396 304.754 146.04C304.754 146.782 305.258 147.188 306.182 147.188ZM312.58 151.15H311.446L313.042 147.398L310.158 140.58H311.334L313.588 146.11H313.616L315.87 140.58H317.032L312.58 151.15Z" fill="#1E2225"/>
</g>
<defs>
<filter id="filter0_d_44_19016" x="1" y="0" width="166" height="83" filterUnits="userSpaceOnUse" color-interpolation-filters="sRGB">
<feFlood flood-opacity="0" result="BackgroundImageFix"/>
<feColorMatrix in="SourceAlpha" type="matrix" values="0 0 0 0 0 0 0 0 0 0 0 0 0 0 0 0 0 0 127 0" result="hardAlpha"/>
<feOffset dy="2"/>
<feGaussianBlur stdDeviation="0.5"/>
<feComposite in2="hardAlpha" operator="out"/>
<feColorMatrix type="matrix" values="0 0 0 0 1 0 0 0 0 1 0 0 0 0 1 0 0 0 0.7 0"/>
<feBlend mode="normal" in2="BackgroundImageFix" result="effect1_dropShadow_44_19016"/>
<feBlend mode="normal" in="SourceGraphic" in2="effect1_dropShadow_44_19016" result="shape"/>
</filter>
<filter id="filter1_i_44_19016" x="3" y="1" width="162" height="72.9998" filterUnits="userSpaceOnUse" color-interpolation-filters="sRGB">
<feFlood flood-opacity="0" result="BackgroundImageFix"/>
<feBlend mode="normal" in="SourceGraphic" in2="BackgroundImageFix" result="shape"/>
<feColorMatrix in="SourceAlpha" type="matrix" values="0 0 0 0 0 0 0 0 0 0 0 0 0 0 0 0 0 0 127 0" result="hardAlpha"/>
<feOffset dy="1"/>
<feGaussianBlur stdDeviation="0.5"/>
<feComposite in2="hardAlpha" operator="arithmetic" k2="-1" k3="1"/>
<feColorMatrix type="matrix" values="0 0 0 0 1 0 0 0 0 1 0 0 0 0 1 0 0 0 0.7 0"/>
<feBlend mode="normal" in2="shape" result="effect1_innerShadow_44_19016"/>
</filter>
<filter id="filter2_d_44_19016" x="14.1" y="13" width="33.8" height="33.8" filterUnits="userSpaceOnUse" color-interpolation-filters="sRGB">
<feFlood flood-opacity="0" result="BackgroundImageFix"/>
<feColorMatrix in="SourceAlpha" type="matrix" values="0 0 0 0 0 0 0 0 0 0 0 0 0 0 0 0 0 0 127 0" result="hardAlpha"/>
<feOffset dy="0.9"/>
<feGaussianBlur stdDeviation="0.45"/>
<feComposite in2="hardAlpha" operator="out"/>
<feColorMatrix type="matrix" values="0 0 0 0 1 0 0 0 0 1 0 0 0 0 1 0 0 0 0.7 0"/>
<feBlend mode="normal" in2="BackgroundImageFix" result="effect1_dropShadow_44_19016"/>
<feBlend mode="normal" in="SourceGraphic" in2="effect1_dropShadow_44_19016" result="shape"/>
</filter>
<filter id="filter3_d_44_19016" x="176" y="0" width="166" height="83" filterUnits="userSpaceOnUse" color-interpolation-filters="sRGB">
<feFlood flood-opacity="0" result="BackgroundImageFix"/>
<feColorMatrix in="SourceAlpha" type="matrix" values="0 0 0 0 0 0 0 0 0 0 0 0 0 0 0 0 0 0 127 0" result="hardAlpha"/>
<feOffset dy="2"/>
<feGaussianBlur stdDeviation="0.5"/>
<feComposite in2="hardAlpha" operator="out"/>
<feColorMatrix type="matrix" values="0 0 0 0 1 0 0 0 0 1 0 0 0 0 1 0 0 0 0.7 0"/>
<feBlend mode="normal" in2="BackgroundImageFix" result="effect1_dropShadow_44_19016"/>
<feBlend mode="normal" in="SourceGraphic" in2="effect1_dropShadow_44_19016" result="shape"/>
</filter>
<filter id="filter4_i_44_19016" x="178" y="1" width="162" height="72.9998" filterUnits="userSpaceOnUse" color-interpolation-filters="sRGB">
<feFlood flood-opacity="0" result="BackgroundImageFix"/>
<feBlend mode="normal" in="SourceGraphic" in2="BackgroundImageFix" result="shape"/>
<feColorMatrix in="SourceAlpha" type="matrix" values="0 0 0 0 0 0 0 0 0 0 0 0 0 0 0 0 0 0 127 0" result="hardAlpha"/>
<feOffset dy="1"/>
<feGaussianBlur stdDeviation="0.5"/>
<feComposite in2="hardAlpha" operator="arithmetic" k2="-1" k3="1"/>
<feColorMatrix type="matrix" values="0 0 0 0 1 0 0 0 0 1 0 0 0 0 1 0 0 0 0.7 0"/>
<feBlend mode="normal" in2="shape" result="effect1_innerShadow_44_19016"/>
</filter>
<filter id="filter5_d_44_19016" x="189.1" y="13" width="33.8" height="33.8" filterUnits="userSpaceOnUse" color-interpolation-filters="sRGB">
<feFlood flood-opacity="0" result="BackgroundImageFix"/>
<feColorMatrix in="SourceAlpha" type="matrix" values="0 0 0 0 0 0 0 0 0 0 0 0 0 0 0 0 0 0 127 0" result="hardAlpha"/>
<feOffset dy="0.9"/>
<feGaussianBlur stdDeviation="0.45"/>
<feComposite in2="hardAlpha" operator="out"/>
<feColorMatrix type="matrix" values="0 0 0 0 1 0 0 0 0 1 0 0 0 0 1 0 0 0 0.7 0"/>
<feBlend mode="normal" in2="BackgroundImageFix" result="effect1_dropShadow_44_19016"/>
<feBlend mode="normal" in="SourceGraphic" in2="effect1_dropShadow_44_19016" result="shape"/>
</filter>
<filter id="filter6_d_44_19016" x="0" y="92" width="82" height="84" filterUnits="userSpaceOnUse" color-interpolation-filters="sRGB">
<feFlood flood-opacity="0" result="BackgroundImageFix"/>
<feColorMatrix in="SourceAlpha" type="matrix" values="0 0 0 0 0 0 0 0 0 0 0 0 0 0 0 0 0 0 127 0" result="hardAlpha"/>
<feOffset dy="2"/>
<feGaussianBlur stdDeviation="0.5"/>
<feComposite in2="hardAlpha" operator="out"/>
<feColorMatrix type="matrix" values="0 0 0 0 1 0 0 0 0 1 0 0 0 0 1 0 0 0 0.7 0"/>
<feBlend mode="normal" in2="BackgroundImageFix" result="effect1_dropShadow_44_19016"/>
<feBlend mode="normal" in="SourceGraphic" in2="effect1_dropShadow_44_19016" result="shape"/>
</filter>
<filter id="filter7_i_44_19016" x="2" y="93" width="78" height="72.9998" filterUnits="userSpaceOnUse" color-interpolation-filters="sRGB">
<feFlood flood-opacity="0" result="BackgroundImageFix"/>
<feBlend mode="normal" in="SourceGraphic" in2="BackgroundImageFix" result="shape"/>
<feColorMatrix in="SourceAlpha" type="matrix" values="0 0 0 0 0 0 0 0 0 0 0 0 0 0 0 0 0 0 127 0" result="hardAlpha"/>
<feOffset dy="1"/>
<feGaussianBlur stdDeviation="0.5"/>
<feComposite in2="hardAlpha" operator="arithmetic" k2="-1" k3="1"/>
<feColorMatrix type="matrix" values="0 0 0 0 1 0 0 0 0 1 0 0 0 0 1 0 0 0 0.7 0"/>
<feBlend mode="normal" in2="shape" result="effect1_innerShadow_44_19016"/>
</filter>
<filter id="filter8_d_44_19016" x="13.1" y="105" width="33.8" height="33.8" filterUnits="userSpaceOnUse" color-interpolation-filters="sRGB">
<feFlood flood-opacity="0" result="BackgroundImageFix"/>
<feColorMatrix in="SourceAlpha" type="matrix" values="0 0 0 0 0 0 0 0 0 0 0 0 0 0 0 0 0 0 127 0" result="hardAlpha"/>
<feOffset dy="0.9"/>
<feGaussianBlur stdDeviation="0.45"/>
<feComposite in2="hardAlpha" operator="out"/>
<feColorMatrix type="matrix" values="0 0 0 0 1 0 0 0 0 1 0 0 0 0 1 0 0 0 0.7 0"/>
<feBlend mode="normal" in2="BackgroundImageFix" result="effect1_dropShadow_44_19016"/>
<feBlend mode="normal" in="SourceGraphic" in2="effect1_dropShadow_44_19016" result="shape"/>
</filter>
<filter id="filter9_d_44_19016" x="87" y="92" width="82" height="84" filterUnits="userSpaceOnUse" color-interpolation-filters="sRGB">
<feFlood flood-opacity="0" result="BackgroundImageFix"/>
<feColorMatrix in="SourceAlpha" type="matrix" values="0 0 0 0 0 0 0 0 0 0 0 0 0 0 0 0 0 0 127 0" result="hardAlpha"/>
<feOffset dy="2"/>
<feGaussianBlur stdDeviation="0.5"/>
<feComposite in2="hardAlpha" operator="out"/>
<feColorMatrix type="matrix" values="0 0 0 0 1 0 0 0 0 1 0 0 0 0 1 0 0 0 0.7 0"/>
<feBlend mode="normal" in2="BackgroundImageFix" result="effect1_dropShadow_44_19016"/>
<feBlend mode="normal" in="SourceGraphic" in2="effect1_dropShadow_44_19016" result="shape"/>
</filter>
<filter id="filter10_i_44_19016" x="89" y="93" width="78" height="72.9998" filterUnits="userSpaceOnUse" color-interpolation-filters="sRGB">
<feFlood flood-opacity="0" result="BackgroundImageFix"/>
<feBlend mode="normal" in="SourceGraphic" in2="BackgroundImageFix" result="shape"/>
<feColorMatrix in="SourceAlpha" type="matrix" values="0 0 0 0 0 0 0 0 0 0 0 0 0 0 0 0 0 0 127 0" result="hardAlpha"/>
<feOffset dy="1"/>
<feGaussianBlur stdDeviation="0.5"/>
<feComposite in2="hardAlpha" operator="arithmetic" k2="-1" k3="1"/>
<feColorMatrix type="matrix" values="0 0 0 0 1 0 0 0 0 1 0 0 0 0 1 0 0 0 0.7 0"/>
<feBlend mode="normal" in2="shape" result="effect1_innerShadow_44_19016"/>
</filter>
<filter id="filter11_d_44_19016" x="175" y="92" width="82" height="83" filterUnits="userSpaceOnUse" color-interpolation-filters="sRGB">
<feFlood flood-opacity="0" result="BackgroundImageFix"/>
<feColorMatrix in="SourceAlpha" type="matrix" values="0 0 0 0 0 0 0 0 0 0 0 0 0 0 0 0 0 0 127 0" result="hardAlpha"/>
<feOffset dy="2"/>
<feGaussianBlur stdDeviation="0.5"/>
<feComposite in2="hardAlpha" operator="out"/>
<feColorMatrix type="matrix" values="0 0 0 0 1 0 0 0 0 1 0 0 0 0 1 0 0 0 0.7 0"/>
<feBlend mode="normal" in2="BackgroundImageFix" result="effect1_dropShadow_44_19016"/>
<feBlend mode="normal" in="SourceGraphic" in2="effect1_dropShadow_44_19016" result="shape"/>
</filter>
<filter id="filter12_i_44_19016" x="177" y="93" width="78" height="72.9998" filterUnits="userSpaceOnUse" color-interpolation-filters="sRGB">
<feFlood flood-opacity="0" result="BackgroundImageFix"/>
<feBlend mode="normal" in="SourceGraphic" in2="BackgroundImageFix" result="shape"/>
<feColorMatrix in="SourceAlpha" type="matrix" values="0 0 0 0 0 0 0 0 0 0 0 0 0 0 0 0 0 0 127 0" result="hardAlpha"/>
<feOffset dy="1"/>
<feGaussianBlur stdDeviation="0.5"/>
<feComposite in2="hardAlpha" operator="arithmetic" k2="-1" k3="1"/>
<feColorMatrix type="matrix" values="0 0 0 0 1 0 0 0 0 1 0 0 0 0 1 0 0 0 0.7 0"/>
<feBlend mode="normal" in2="shape" result="effect1_innerShadow_44_19016"/>
</filter>
<filter id="filter13_d_44_19016" x="188" y="105" width="26" height="27" filterUnits="userSpaceOnUse" color-interpolation-filters="sRGB">
<feFlood flood-opacity="0" result="BackgroundImageFix"/>
<feColorMatrix in="SourceAlpha" type="matrix" values="0 0 0 0 0 0 0 0 0 0 0 0 0 0 0 0 0 0 127 0" result="hardAlpha"/>
<feOffset dy="2"/>
<feGaussianBlur stdDeviation="0.5"/>
<feComposite in2="hardAlpha" operator="out"/>
<feColorMatrix type="matrix" values="0 0 0 0 1 0 0 0 0 1 0 0 0 0 1 0 0 0 0.7 0"/>
<feBlend mode="normal" in2="BackgroundImageFix" result="effect1_dropShadow_44_19016"/>
<feBlend mode="normal" in="SourceGraphic" in2="effect1_dropShadow_44_19016" result="shape"/>
</filter>
<filter id="filter14_d_44_19016" x="263" y="92" width="82" height="83" filterUnits="userSpaceOnUse" color-interpolation-filters="sRGB">
<feFlood flood-opacity="0" result="BackgroundImageFix"/>
<feColorMatrix in="SourceAlpha" type="matrix" values="0 0 0 0 0 0 0 0 0 0 0 0 0 0 0 0 0 0 127 0" result="hardAlpha"/>
<feOffset dy="2"/>
<feGaussianBlur stdDeviation="0.5"/>
<feComposite in2="hardAlpha" operator="out"/>
<feColorMatrix type="matrix" values="0 0 0 0 1 0 0 0 0 1 0 0 0 0 1 0 0 0 0.7 0"/>
<feBlend mode="normal" in2="BackgroundImageFix" result="effect1_dropShadow_44_19016"/>
<feBlend mode="normal" in="SourceGraphic" in2="effect1_dropShadow_44_19016" result="shape"/>
</filter>
<filter id="filter15_i_44_19016" x="265" y="93" width="78" height="72.9998" filterUnits="userSpaceOnUse" color-interpolation-filters="sRGB">
<feFlood flood-opacity="0" result="BackgroundImageFix"/>
<feBlend mode="normal" in="SourceGraphic" in2="BackgroundImageFix" result="shape"/>
<feColorMatrix in="SourceAlpha" type="matrix" values="0 0 0 0 0 0 0 0 0 0 0 0 0 0 0 0 0 0 127 0" result="hardAlpha"/>
<feOffset dy="1"/>
<feGaussianBlur stdDeviation="0.5"/>
<feComposite in2="hardAlpha" operator="arithmetic" k2="-1" k3="1"/>
<feColorMatrix type="matrix" values="0 0 0 0 1 0 0 0 0 1 0 0 0 0 1 0 0 0 0.7 0"/>
<feBlend mode="normal" in2="shape" result="effect1_innerShadow_44_19016"/>
</filter>
<filter id="filter16_d_44_19016" x="276" y="105" width="26" height="27" filterUnits="userSpaceOnUse" color-interpolation-filters="sRGB">
<feFlood flood-opacity="0" result="BackgroundImageFix"/>
<feColorMatrix in="SourceAlpha" type="matrix" values="0 0 0 0 0 0 0 0 0 0 0 0 0 0 0 0 0 0 127 0" result="hardAlpha"/>
<feOffset dy="2"/>
<feGaussianBlur stdDeviation="0.5"/>
<feComposite in2="hardAlpha" operator="out"/>
<feColorMatrix type="matrix" values="0 0 0 0 1 0 0 0 0 1 0 0 0 0 1 0 0 0 0.7 0"/>
<feBlend mode="normal" in2="BackgroundImageFix" result="effect1_dropShadow_44_19016"/>
<feBlend mode="normal" in="SourceGraphic" in2="effect1_dropShadow_44_19016" result="shape"/>
</filter>
<linearGradient id="paint0_linear_44_19016" x1="84" y1="1" x2="84" y2="72.9998" gradientUnits="userSpaceOnUse">
<stop stop-opacity="0.04"/>
<stop offset="1" stop-opacity="0"/>
</linearGradient>
<linearGradient id="paint1_linear_44_19016" x1="84" y1="72.9998" x2="84" y2="1.00002" gradientUnits="userSpaceOnUse">
<stop stop-color="white" stop-opacity="0.7"/>
<stop offset="1" stop-color="white" stop-opacity="0"/>
</linearGradient>
<linearGradient id="paint2_linear_44_19016" x1="31" y1="13" x2="31" y2="45" gradientUnits="userSpaceOnUse">
<stop stop-opacity="0.04"/>
<stop offset="1" stop-opacity="0"/>
</linearGradient>
<linearGradient id="paint3_linear_44_19016" x1="31" y1="13" x2="31" y2="45" gradientUnits="userSpaceOnUse">
<stop stop-opacity="0.04"/>
<stop offset="1" stop-opacity="0"/>
</linearGradient>
<linearGradient id="paint4_linear_44_19016" x1="259" y1="1" x2="259" y2="72.9998" gradientUnits="userSpaceOnUse">
<stop stop-opacity="0.04"/>
<stop offset="1" stop-opacity="0"/>
</linearGradient>
<linearGradient id="paint5_linear_44_19016" x1="259" y1="72.9998" x2="259" y2="1.00002" gradientUnits="userSpaceOnUse">
<stop stop-color="white" stop-opacity="0.7"/>
<stop offset="1" stop-color="white" stop-opacity="0"/>
</linearGradient>
<linearGradient id="paint6_linear_44_19016" x1="206" y1="13" x2="206" y2="45" gradientUnits="userSpaceOnUse">
<stop stop-opacity="0.04"/>
<stop offset="1" stop-opacity="0"/>
</linearGradient>
<linearGradient id="paint7_linear_44_19016" x1="206" y1="13" x2="206" y2="45" gradientUnits="userSpaceOnUse">
<stop stop-opacity="0.04"/>
<stop offset="1" stop-opacity="0"/>
</linearGradient>
<linearGradient id="paint8_linear_44_19016" x1="41" y1="93" x2="41" y2="165" gradientUnits="userSpaceOnUse">
<stop stop-opacity="0.04"/>
<stop offset="1" stop-opacity="0"/>
</linearGradient>
<linearGradient id="paint9_linear_44_19016" x1="41" y1="165" x2="41" y2="93" gradientUnits="userSpaceOnUse">
<stop stop-color="white" stop-opacity="0.7"/>
<stop offset="1" stop-color="white" stop-opacity="0"/>
</linearGradient>
<linearGradient id="paint10_linear_44_19016" x1="30" y1="105" x2="30" y2="137" gradientUnits="userSpaceOnUse">
<stop stop-opacity="0.04"/>
<stop offset="1" stop-opacity="0"/>
</linearGradient>
<linearGradient id="paint11_linear_44_19016" x1="30" y1="105" x2="30" y2="137" gradientUnits="userSpaceOnUse">
<stop stop-opacity="0.04"/>
<stop offset="1" stop-opacity="0"/>
</linearGradient>
<linearGradient id="paint12_linear_44_19016" x1="128" y1="93" x2="128" y2="165" gradientUnits="userSpaceOnUse">
<stop stop-opacity="0.04"/>
<stop offset="1" stop-opacity="0"/>
</linearGradient>
<linearGradient id="paint13_linear_44_19016" x1="128" y1="165" x2="128" y2="93" gradientUnits="userSpaceOnUse">
<stop stop-color="white" stop-opacity="0.7"/>
<stop offset="1" stop-color="white" stop-opacity="0"/>
</linearGradient>
<linearGradient id="paint14_linear_44_19016" x1="117" y1="105" x2="117" y2="137" gradientUnits="userSpaceOnUse">
<stop stop-color="white" stop-opacity="0.4"/>
<stop offset="1" stop-color="white" stop-opacity="0"/>
</linearGradient>
<linearGradient id="paint15_linear_44_19016" x1="117" y1="105" x2="117" y2="137" gradientUnits="userSpaceOnUse">
<stop stop-opacity="0.04"/>
<stop offset="1" stop-opacity="0"/>
</linearGradient>
<linearGradient id="paint16_linear_44_19016" x1="216" y1="93" x2="216" y2="165" gradientUnits="userSpaceOnUse">
<stop stop-opacity="0.04"/>
<stop offset="1" stop-opacity="0"/>
</linearGradient>
<linearGradient id="paint17_linear_44_19016" x1="216" y1="165" x2="216" y2="93" gradientUnits="userSpaceOnUse">
<stop stop-color="white" stop-opacity="0.7"/>
<stop offset="1" stop-color="white" stop-opacity="0"/>
</linearGradient>
<linearGradient id="paint18_linear_44_19016" x1="201" y1="105" x2="201" y2="129" gradientUnits="userSpaceOnUse">
<stop stop-color="white" stop-opacity="0.7"/>
<stop offset="1" stop-color="white" stop-opacity="0"/>
</linearGradient>
<linearGradient id="paint19_linear_44_19016" x1="201" y1="105" x2="201" y2="129" gradientUnits="userSpaceOnUse">
<stop stop-color="white" stop-opacity="0.4"/>
<stop offset="1" stop-color="white" stop-opacity="0"/>
</linearGradient>
<linearGradient id="paint20_linear_44_19016" x1="304" y1="93" x2="304" y2="165" gradientUnits="userSpaceOnUse">
<stop stop-opacity="0.04"/>
<stop offset="1" stop-opacity="0"/>
</linearGradient>
<linearGradient id="paint21_linear_44_19016" x1="304" y1="165" x2="304" y2="93" gradientUnits="userSpaceOnUse">
<stop stop-color="white" stop-opacity="0.7"/>
<stop offset="1" stop-color="white" stop-opacity="0"/>
</linearGradient>
<linearGradient id="paint22_linear_44_19016" x1="289" y1="105" x2="289" y2="129" gradientUnits="userSpaceOnUse">
<stop stop-color="white" stop-opacity="0.7"/>
<stop offset="1" stop-color="white" stop-opacity="0"/>
</linearGradient>
<linearGradient id="paint23_linear_44_19016" x1="289" y1="105" x2="289" y2="129" gradientUnits="userSpaceOnUse">
<stop stop-color="white" stop-opacity="0.4"/>
<stop offset="1" stop-color="white" stop-opacity="0"/>
</linearGradient>
<clipPath id="clip0_44_19016">
<rect width="15.114" height="16.83" fill="white" transform="translate(198.2 20.6)"/>
</clipPath>
<clipPath id="clip1_44_19016">
<rect x="101" y="105" width="32" height="32" rx="16" fill="white"/>
</clipPath>
<clipPath id="clip2_44_19016">
<rect x="101" y="105" width="32" height="32" rx="16" fill="white"/>
</clipPath>
<clipPath id="clip3_44_19016">
<rect width="22.4" height="22.4" fill="white" transform="translate(105.8 109.8)"/>
</clipPath>
<clipPath id="clip4_44_19016">
<rect x="189" y="105" width="24" height="24" rx="12" fill="white"/>
</clipPath>
<clipPath id="clip5_44_19016">
<rect x="277" y="105" width="24" height="24" rx="12" fill="white"/>
</clipPath>
</defs>
</svg>
