<svg width="64" height="64" viewBox="0 0 64 64" fill="none" xmlns="http://www.w3.org/2000/svg">
  <rect width="64" height="64" rx="32" fill="#EAECEE" />
  <rect width="64" height="64" rx="32" fill="url(#paint0_linear_62_19082)" />
  <g filter="url(#filter0_d_62_19082)">
    <circle cx="32" cy="32" r="26" fill="#FCFCFD" />
    <circle cx="32" cy="32" r="26" stroke="#EBECEF" />
  </g>
  <circle cx="32" cy="32" r="26" fill="#EEEFF2" />
  <circle cx="31.5" cy="31.5" r="26.5" fill="url(#paint1_linear_62_19082)" />
  <circle cx="31.5" cy="31.5" r="26.5" fill="url(#paint2_linear_62_19082)" />
  <rect x="9" y="9" width="46" height="46" rx="23" fill="#E2E5E9" />
  <g clip-path="url(#clip0_62_19082)">
    <rect x="9" y="9" width="46" height="46" rx="23" fill="white" />
    <rect opacity="0.24" x="9" y="9" width="46" height="46" rx="23" fill="#00880D" />
    <g clip-path="url(#clip1_62_19082)">
      <path fill-rule="evenodd" clip-rule="evenodd"
        d="M36.0913 35.1666C35.3131 35.18 34.6678 34.5897 34.6423 33.8383L34.5484 31.3562L29.1817 36.9376C28.6571 37.4877 27.7582 37.5145 27.1813 37.0047C26.6044 36.4948 26.5775 35.6362 27.1008 35.0861L32.4688 29.5034L29.878 29.6107C29.0999 29.6376 28.4424 29.0606 28.4035 28.3093C28.3754 27.9336 28.5229 27.5848 28.7779 27.3299C29.0194 27.075 29.3548 26.9006 29.7452 26.8871L35.7693 26.6322C36.5609 26.6054 37.2317 27.1957 37.2585 27.9471L37.4611 33.7578C37.4866 34.5092 36.8829 35.1397 36.0913 35.1666ZM31.4494 17.9236C27.5572 18.0712 24.1078 19.7885 21.6526 22.433C19.2107 25.0761 17.7751 28.6583 17.9227 32.5505C18.2179 40.3201 24.7666 46.3844 32.5482 46.0758C36.4404 45.9282 39.8885 44.2109 42.3451 41.5678C44.7869 38.9234 46.2373 35.3411 46.0749 31.449C45.7798 23.6794 39.2324 17.615 31.4494 17.9236Z"
        fill="#00880D" />
    </g>
  </g>
  <rect x="9.5" y="9.5" width="45" height="45" rx="22.5" fill="url(#paint3_linear_62_19082)" />
  <rect x="9.5" y="9.5" width="45" height="45" rx="22.5" stroke="url(#paint4_linear_62_19082)" />
  <defs>
    <filter id="filter0_d_62_19082" x="1.5" y="1.5" width="61" height="61" filterUnits="userSpaceOnUse"
      color-interpolation-filters="sRGB">
      <feFlood flood-opacity="0" result="BackgroundImageFix" />
      <feColorMatrix in="SourceAlpha" type="matrix" values="0 0 0 0 0 0 0 0 0 0 0 0 0 0 0 0 0 0 127 0"
        result="hardAlpha" />
      <feOffset />
      <feGaussianBlur stdDeviation="2" />
      <feColorMatrix type="matrix" values="0 0 0 0 0 0 0 0 0 0 0 0 0 0 0 0 0 0 0.15 0" />
      <feBlend mode="normal" in2="BackgroundImageFix" result="effect1_dropShadow_62_19082" />
      <feBlend mode="normal" in="SourceGraphic" in2="effect1_dropShadow_62_19082" result="shape" />
    </filter>
    <linearGradient id="paint0_linear_62_19082" x1="32" y1="0" x2="32" y2="64" gradientUnits="userSpaceOnUse">
      <stop stop-color="white" stop-opacity="0.7" />
      <stop offset="1" stop-color="white" stop-opacity="0" />
    </linearGradient>
    <linearGradient id="paint1_linear_62_19082" x1="31.5" y1="5" x2="31.5" y2="58" gradientUnits="userSpaceOnUse">
      <stop stop-color="white" stop-opacity="0.7" />
      <stop offset="1" stop-color="white" stop-opacity="0" />
    </linearGradient>
    <linearGradient id="paint2_linear_62_19082" x1="31.5" y1="5" x2="31.5" y2="58" gradientUnits="userSpaceOnUse">
      <stop stop-color="white" stop-opacity="0.7" />
      <stop offset="1" stop-color="white" stop-opacity="0" />
    </linearGradient>
    <linearGradient id="paint3_linear_62_19082" x1="32" y1="9" x2="32" y2="55" gradientUnits="userSpaceOnUse">
      <stop stop-color="white" stop-opacity="0.4" />
      <stop offset="1" stop-color="white" stop-opacity="0" />
    </linearGradient>
    <linearGradient id="paint4_linear_62_19082" x1="32" y1="9" x2="32" y2="55" gradientUnits="userSpaceOnUse">
      <stop stop-opacity="0.04" />
      <stop offset="1" stop-opacity="0" />
    </linearGradient>
    <clipPath id="clip0_62_19082">
      <rect x="9" y="9" width="46" height="46" rx="23" fill="white" />
    </clipPath>
    <clipPath id="clip1_62_19082">
      <rect width="32.2" height="32.2" fill="white" transform="translate(15.8999 15.8999)" />
    </clipPath>
  </defs>
</svg>