<svg width="64" height="64" viewBox="0 0 64 64" fill="none" xmlns="http://www.w3.org/2000/svg">
  <rect width="64" height="64" rx="32" fill="#EAECEE" />
  <rect width="64" height="64" rx="32" fill="url(#paint0_linear_62_19521)" />
  <g filter="url(#filter0_d_62_19521)">
    <circle cx="32" cy="32" r="26" fill="#FCFCFD" />
    <circle cx="32" cy="32" r="26" stroke="#EBECEF" />
  </g>
  <circle cx="32" cy="32" r="26" fill="#EEEFF2" />
  <circle cx="31.5" cy="31.5" r="26.5" fill="url(#paint1_linear_62_19521)" />
  <circle cx="31.5" cy="31.5" r="26.5" fill="url(#paint2_linear_62_19521)" />
  <rect x="9" y="9" width="46" height="46" rx="23" fill="#E2E5E9" />
  <g clip-path="url(#clip0_62_19521)">
    <rect x="9" y="9" width="46" height="46" rx="23" fill="white" />
    <rect opacity="0.24" x="9" y="9" width="46" height="46" rx="23" fill="#00AED6" />
  </g>
  <path
    d="M32.0011 18C39.7331 18 46.0022 24.2691 46.0022 32.0011C46.0022 39.7331 39.7331 46 32.0011 46C24.2691 46 18 39.7331 18 32.0011C18 24.2691 24.2691 18 32.0011 18Z"
    fill="#00AFD9" />
  <path
    d="M39.6529 32.2025C38.8801 30.6994 37.8036 29.4912 36.5864 28.4236C36.439 28.2941 36.2872 28.169 36.1286 28.0328H36.1241C35.5055 27.5057 35.3089 26.6637 35.3089 26.6637C34.9963 25.5515 36.8656 25.4487 36.5462 23.5079C36.5016 23.2399 36.1532 23.0568 35.8048 23.126C35.032 23.2779 33.9622 23.6196 33.9622 23.6196L32.5083 22.7709C32.3542 22.6949 32.1777 22.657 32.0035 22.657C31.8293 22.657 31.6507 22.6949 31.4988 22.7709L30.0448 23.6196C30.0448 23.6196 28.9751 23.2779 28.2023 23.126C27.8561 23.0568 27.5055 23.2421 27.4608 23.5079C27.1392 25.4487 29.0086 25.5515 28.6981 26.6637C28.6981 26.6637 28.5016 27.5034 27.8829 28.0328C27.8092 28.0953 27.7467 28.1467 27.6842 28.2003C26.5742 29.1271 25.5758 30.1746 24.783 31.4431C23.8986 32.8613 23.3603 34.4046 23.4563 36.1556C23.5077 37.1025 23.8249 37.9244 24.4547 38.59C25.0488 39.2176 25.7701 39.5861 26.5451 39.8474C26.6903 39.8965 26.8355 39.9412 26.9806 39.9814C26.3419 38.7642 26.4982 37.451 26.5094 37.3706C26.5451 37.0891 26.8042 36.8993 27.0834 36.9283C27.3625 36.9641 27.5635 37.2187 27.5278 37.5001C27.5233 37.5403 27.4787 37.9468 27.5591 38.4671C27.6462 39.03 27.8807 39.7223 28.4748 40.2405C28.4904 40.2539 28.506 40.2673 28.5239 40.2807C28.5328 40.2874 28.5418 40.2941 28.5507 40.3008C28.5887 40.3298 28.6266 40.3588 28.6668 40.3879C28.7115 40.4214 28.7584 40.4526 28.8053 40.4839C28.8924 40.5375 28.984 40.5911 29.0823 40.638C29.1225 40.6581 29.1582 40.6827 29.1895 40.7095C29.96 41.107 30.9471 41.3438 32.0214 41.3438C33.0957 41.3438 34.0091 41.1204 34.7685 40.7497C34.8109 40.705 34.86 40.667 34.9203 40.638C35.1303 40.5397 35.3089 40.4191 35.4675 40.2918C36.18 39.7089 36.4078 38.8781 36.4725 38.2728C36.5172 37.8485 36.4815 37.5358 36.477 37.5023C36.4435 37.2209 36.6423 36.9663 36.9215 36.9306C37.2006 36.8993 37.4575 37.0914 37.4954 37.3728C37.5066 37.4532 37.6629 38.7731 37.0197 39.9925C37.5825 39.8362 38.1297 39.6218 38.6501 39.3114C39.9298 38.5453 40.573 37.3661 40.5596 35.7536C40.5507 34.4783 40.2157 33.3058 39.6507 32.207L39.6529 32.2025ZM35.2509 30.4582C35.2151 30.4649 35.1816 30.4694 35.1459 30.4694C34.9069 30.4694 34.6948 30.3019 34.6434 30.0607C34.5161 29.4443 34.0381 29.0445 33.6317 28.8077C33.5535 29.4934 33.2788 30.4448 32.3988 31.0389C32.3117 31.0992 32.2112 31.126 32.113 31.126C31.9477 31.126 31.7869 31.0478 31.6864 30.9004C31.5278 30.6659 31.5904 30.3465 31.8249 30.188C32.7115 29.5894 32.64 28.2874 32.6266 28.1109C32.3274 28.1266 32.0437 28.1377 31.7869 28.1377C30.3888 28.1377 29.625 27.9322 29.5781 27.9188C29.3056 27.8429 29.147 27.5615 29.223 27.289C29.2967 27.0166 29.5803 26.858 29.8528 26.9317C29.8684 26.9362 31.4228 27.3449 34.2079 26.9183C34.4893 26.8759 34.7506 27.0702 34.793 27.3493C34.8355 27.6307 34.6434 27.892 34.3642 27.9345C34.3084 27.9434 34.2593 27.9479 34.2034 27.9546C34.7796 28.303 35.4519 28.8993 35.6484 29.8552C35.7065 30.1321 35.5278 30.4046 35.2509 30.4627V30.4582Z"
    fill="white" />
  <rect x="9.5" y="9.5" width="45" height="45" rx="22.5" fill="url(#paint3_linear_62_19521)" />
  <rect x="9.5" y="9.5" width="45" height="45" rx="22.5" stroke="url(#paint4_linear_62_19521)" />
  <defs>
    <filter id="filter0_d_62_19521" x="1.5" y="1.5" width="61" height="61" filterUnits="userSpaceOnUse"
      color-interpolation-filters="sRGB">
      <feFlood flood-opacity="0" result="BackgroundImageFix" />
      <feColorMatrix in="SourceAlpha" type="matrix" values="0 0 0 0 0 0 0 0 0 0 0 0 0 0 0 0 0 0 127 0"
        result="hardAlpha" />
      <feOffset />
      <feGaussianBlur stdDeviation="2" />
      <feColorMatrix type="matrix" values="0 0 0 0 0 0 0 0 0 0 0 0 0 0 0 0 0 0 0.15 0" />
      <feBlend mode="normal" in2="BackgroundImageFix" result="effect1_dropShadow_62_19521" />
      <feBlend mode="normal" in="SourceGraphic" in2="effect1_dropShadow_62_19521" result="shape" />
    </filter>
    <linearGradient id="paint0_linear_62_19521" x1="32" y1="0" x2="32" y2="64" gradientUnits="userSpaceOnUse">
      <stop stop-color="white" stop-opacity="0.7" />
      <stop offset="1" stop-color="white" stop-opacity="0" />
    </linearGradient>
    <linearGradient id="paint1_linear_62_19521" x1="31.5" y1="5" x2="31.5" y2="58" gradientUnits="userSpaceOnUse">
      <stop stop-color="white" stop-opacity="0.7" />
      <stop offset="1" stop-color="white" stop-opacity="0" />
    </linearGradient>
    <linearGradient id="paint2_linear_62_19521" x1="31.5" y1="5" x2="31.5" y2="58" gradientUnits="userSpaceOnUse">
      <stop stop-color="white" stop-opacity="0.7" />
      <stop offset="1" stop-color="white" stop-opacity="0" />
    </linearGradient>
    <linearGradient id="paint3_linear_62_19521" x1="32" y1="9" x2="32" y2="55" gradientUnits="userSpaceOnUse">
      <stop stop-color="white" stop-opacity="0.4" />
      <stop offset="1" stop-color="white" stop-opacity="0" />
    </linearGradient>
    <linearGradient id="paint4_linear_62_19521" x1="32" y1="9" x2="32" y2="55" gradientUnits="userSpaceOnUse">
      <stop stop-opacity="0.04" />
      <stop offset="1" stop-opacity="0" />
    </linearGradient>
    <clipPath id="clip0_62_19521">
      <rect x="9" y="9" width="46" height="46" rx="23" fill="white" />
    </clipPath>
  </defs>
</svg>