<svg width="64" height="64" viewBox="0 0 64 64" fill="none" xmlns="http://www.w3.org/2000/svg">
  <rect width="64" height="64" rx="32" fill="#EAECEE" />
  <rect width="64" height="64" rx="32" fill="url(#paint0_linear_62_19094)" />
  <g filter="url(#filter0_d_62_19094)">
    <circle cx="32" cy="32" r="26" fill="#FCFCFD" />
    <circle cx="32" cy="32" r="26" stroke="#EBECEF" />
  </g>
  <circle cx="32" cy="32" r="26" fill="#EEEFF2" />
  <circle cx="31.5" cy="31.5" r="26.5" fill="url(#paint1_linear_62_19094)" />
  <circle cx="31.5" cy="31.5" r="26.5" fill="url(#paint2_linear_62_19094)" />
  <rect x="9" y="9" width="46" height="46" rx="23" fill="#E2E5E9" />
  <g clip-path="url(#clip0_62_19094)">
    <rect x="9" y="9" width="46" height="46" rx="23" fill="white" />
    <rect opacity="0.24" x="9" y="9" width="46" height="46" rx="23" fill="#00AED6" />
    <g clip-path="url(#clip1_62_19094)">
      <path fill-rule="evenodd" clip-rule="evenodd"
        d="M26.6334 36.0249C27.0587 36.0249 27.4907 36.0437 27.9187 36.0813C27.9938 36.9359 27.9938 37.7972 27.9187 38.6519C27.4907 38.6895 27.0587 38.7082 26.6334 38.7082C26.2081 38.7082 25.7761 38.6895 25.3481 38.6519C25.2729 37.7972 25.2729 36.9359 25.3481 36.0813C25.7761 36.0437 26.2081 36.0249 26.6334 36.0249ZM39.9885 38.5543C40.0704 37.7627 40.0704 36.9711 39.9885 36.1796C39.912 35.4242 39.3096 34.8218 38.5543 34.744C37.7627 34.6635 36.9711 34.6635 36.1795 34.744C35.4242 34.8218 34.8218 35.4242 34.7439 36.1796C34.6634 36.9711 34.6634 37.7627 34.7439 38.5543C34.8218 39.3097 35.4242 39.9107 36.1795 39.9885C36.9711 40.0704 37.7627 40.0704 38.5543 39.9885C39.3096 39.9107 39.912 39.3097 39.9885 38.5543ZM30.5675 39.1472C30.6882 37.9598 30.6882 36.7724 30.5675 35.5864C30.4507 34.4514 29.5478 33.5498 28.4141 33.433C27.8211 33.3713 27.2267 33.3418 26.6337 33.3418C26.0393 33.3418 25.4463 33.3713 24.8533 33.433C23.7196 33.5498 22.8166 34.4514 22.6999 35.5864C22.5778 36.7724 22.5778 37.9598 22.6999 39.1472C22.8166 40.2809 23.7196 41.1838 24.8533 41.2992C25.4463 41.3609 26.0393 41.3918 26.6337 41.3918C27.2267 41.3918 27.8211 41.3609 28.4141 41.2992C29.5478 41.1838 30.4507 40.2809 30.5675 39.1472ZM37.3669 25.2917C37.7922 25.2917 38.2242 25.3105 38.6522 25.3481C38.7274 26.2027 38.7274 27.0641 38.6522 27.9187C38.2242 27.9563 37.7922 27.9751 37.3669 27.9751C36.9416 27.9751 36.5096 27.9563 36.0816 27.9187C36.0065 27.0641 36.0065 26.2027 36.0816 25.3481C36.5096 25.3105 36.9416 25.2917 37.3669 25.2917ZM26.6334 25.2917C27.0587 25.2917 27.4907 25.3105 27.9187 25.3481C27.9938 26.2027 27.9938 27.0641 27.9187 27.9187C27.4907 27.9563 27.0587 27.9751 26.6334 27.9751C26.2081 27.9751 25.7761 27.9563 25.3481 27.9187C25.2729 27.0641 25.2729 26.2027 25.3481 25.3481C25.7761 25.3105 26.2081 25.2917 26.6334 25.2917ZM41.3006 28.414C41.4214 27.2267 41.4214 26.0393 41.3006 24.8533C41.1839 23.7182 40.281 22.8166 39.1472 22.6999C38.5542 22.6382 37.9599 22.6086 37.3669 22.6086C36.7725 22.6086 36.1795 22.6382 35.5865 22.6999C34.4528 22.8166 33.5498 23.7182 33.4331 24.8533C33.311 26.0393 33.311 27.2267 33.4331 28.414C33.5498 29.5477 34.4528 30.4507 35.5865 30.5661C36.1795 30.6278 36.7725 30.6586 37.3669 30.6586C37.9599 30.6586 38.5542 30.6278 39.1472 30.5661C40.281 30.4507 41.1839 29.5477 41.3006 28.414ZM30.5675 28.414C30.6882 27.2267 30.6882 26.0393 30.5675 24.8533C30.4507 23.7182 29.5478 22.8166 28.4141 22.6999C27.8211 22.6382 27.2267 22.6086 26.6337 22.6086C26.0393 22.6086 25.4463 22.6382 24.8533 22.6999C23.7196 22.8166 22.8166 23.7182 22.6999 24.8533C22.5778 26.0393 22.5778 27.2267 22.6999 28.414C22.8166 29.5477 23.7196 30.4507 24.8533 30.5661C25.4463 30.6278 26.0393 30.6586 26.6337 30.6586C27.2267 30.6586 27.8211 30.6278 28.4141 30.5661C29.5478 30.4507 30.4507 29.5477 30.5675 28.414ZM45.1124 26.0661C45.5189 30.0226 45.5189 33.9779 45.1124 37.9344C44.7246 41.7166 41.7166 44.7246 37.9344 45.1124C33.9779 45.5189 30.0226 45.5189 26.0661 45.1124C22.2839 44.7246 19.2759 41.7166 18.8881 37.9344C18.4816 33.9779 18.4816 30.0226 18.8881 26.0661C19.2759 22.2839 22.2839 19.2759 26.0661 18.8881C30.0226 18.4816 33.9779 18.4816 37.9344 18.8881C41.7166 19.2759 44.7246 22.2839 45.1124 26.0661Z"
        fill="#00AED6" />
    </g>
  </g>
  <rect x="9.5" y="9.5" width="45" height="45" rx="22.5" fill="url(#paint3_linear_62_19094)" />
  <rect x="9.5" y="9.5" width="45" height="45" rx="22.5" stroke="url(#paint4_linear_62_19094)" />
  <defs>
    <filter id="filter0_d_62_19094" x="1.5" y="1.5" width="61" height="61" filterUnits="userSpaceOnUse"
      color-interpolation-filters="sRGB">
      <feFlood flood-opacity="0" result="BackgroundImageFix" />
      <feColorMatrix in="SourceAlpha" type="matrix" values="0 0 0 0 0 0 0 0 0 0 0 0 0 0 0 0 0 0 127 0"
        result="hardAlpha" />
      <feOffset />
      <feGaussianBlur stdDeviation="2" />
      <feColorMatrix type="matrix" values="0 0 0 0 0 0 0 0 0 0 0 0 0 0 0 0 0 0 0.15 0" />
      <feBlend mode="normal" in2="BackgroundImageFix" result="effect1_dropShadow_62_19094" />
      <feBlend mode="normal" in="SourceGraphic" in2="effect1_dropShadow_62_19094" result="shape" />
    </filter>
    <linearGradient id="paint0_linear_62_19094" x1="32" y1="0" x2="32" y2="64" gradientUnits="userSpaceOnUse">
      <stop stop-color="white" stop-opacity="0.7" />
      <stop offset="1" stop-color="white" stop-opacity="0" />
    </linearGradient>
    <linearGradient id="paint1_linear_62_19094" x1="31.5" y1="5" x2="31.5" y2="58" gradientUnits="userSpaceOnUse">
      <stop stop-color="white" stop-opacity="0.7" />
      <stop offset="1" stop-color="white" stop-opacity="0" />
    </linearGradient>
    <linearGradient id="paint2_linear_62_19094" x1="31.5" y1="5" x2="31.5" y2="58" gradientUnits="userSpaceOnUse">
      <stop stop-color="white" stop-opacity="0.7" />
      <stop offset="1" stop-color="white" stop-opacity="0" />
    </linearGradient>
    <linearGradient id="paint3_linear_62_19094" x1="32" y1="9" x2="32" y2="55" gradientUnits="userSpaceOnUse">
      <stop stop-color="white" stop-opacity="0.4" />
      <stop offset="1" stop-color="white" stop-opacity="0" />
    </linearGradient>
    <linearGradient id="paint4_linear_62_19094" x1="32" y1="9" x2="32" y2="55" gradientUnits="userSpaceOnUse">
      <stop stop-opacity="0.04" />
      <stop offset="1" stop-opacity="0" />
    </linearGradient>
    <clipPath id="clip0_62_19094">
      <rect x="9" y="9" width="46" height="46" rx="23" fill="white" />
    </clipPath>
    <clipPath id="clip1_62_19094">
      <rect width="32.2" height="32.2" fill="white" transform="translate(15.8999 15.8999)" />
    </clipPath>
  </defs>
</svg>