<svg width="64" height="64" viewBox="0 0 64 64" fill="none" xmlns="http://www.w3.org/2000/svg">
  <rect width="64" height="64" rx="32" fill="#EAECEE" />
  <rect width="64" height="64" rx="32" fill="url(#paint0_linear_62_19120)" />
  <g filter="url(#filter0_d_62_19120)">
    <circle cx="32" cy="32" r="26" fill="#FCFCFD" />
    <circle cx="32" cy="32" r="26" stroke="#EBECEF" />
  </g>
  <circle cx="32" cy="32" r="26" fill="#EEEFF2" />
  <circle cx="31.5" cy="31.5" r="26.5" fill="url(#paint1_linear_62_19120)" />
  <circle cx="31.5" cy="31.5" r="26.5" fill="url(#paint2_linear_62_19120)" />
  <rect x="55" y="55" width="46" height="46" rx="23" transform="rotate(-180 55 55)" fill="#E2E5E9" />
  <g clip-path="url(#clip0_62_19120)">
    <rect x="55" y="55" width="46" height="46" rx="23" transform="rotate(-180 55 55)" fill="white" />
    <rect opacity="0.24" x="55" y="55" width="46" height="46" rx="23" transform="rotate(-180 55 55)" fill="#00880D" />
    <g clip-path="url(#clip1_62_19120)">
      <path fill-rule="evenodd" clip-rule="evenodd"
        d="M36.9666 32.2837C36.4393 32.8043 35.5901 32.7976 35.0695 32.2703L33.3414 30.5181L33.3414 37.3673C33.3414 38.1079 32.7404 38.709 31.9998 38.709C31.2592 38.709 30.6581 38.1079 30.6581 37.3673L30.6581 30.5181L28.93 32.2703C28.6671 32.5373 28.3209 32.6715 27.9748 32.6715C27.634 32.6715 27.2945 32.5427 27.0329 32.2851C26.5056 31.7645 26.4989 30.9152 27.0181 30.388L31.0418 26.3039C31.5677 25.7713 32.4277 25.7713 32.9523 26.3039L36.98 30.3866C37.4992 30.9139 37.4939 31.7632 36.9666 32.2837ZM45.1119 26.0666C44.7241 22.2844 41.7161 19.2764 37.9339 18.8886C33.9774 18.4821 30.0221 18.4821 26.0656 18.8886C22.2834 19.2764 19.2754 22.2844 18.8876 26.0666C18.4811 30.0218 18.4811 33.9784 18.8876 37.9336C19.2754 41.7158 22.2834 44.7238 26.0656 45.1129C30.0221 45.518 33.9774 45.518 37.9339 45.1129C41.7161 44.7238 44.7241 41.7158 45.1119 37.9336C45.5184 33.9784 45.5184 30.0218 45.1119 26.0666Z"
        fill="#00880D" />
    </g>
  </g>
  <rect x="54.5" y="54.5" width="45" height="45" rx="22.5" transform="rotate(-180 54.5 54.5)"
    fill="url(#paint3_linear_62_19120)" />
  <rect x="54.5" y="54.5" width="45" height="45" rx="22.5" transform="rotate(-180 54.5 54.5)"
    stroke="url(#paint4_linear_62_19120)" />
  <defs>
    <filter id="filter0_d_62_19120" x="1.5" y="1.5" width="61" height="61" filterUnits="userSpaceOnUse"
      color-interpolation-filters="sRGB">
      <feFlood flood-opacity="0" result="BackgroundImageFix" />
      <feColorMatrix in="SourceAlpha" type="matrix" values="0 0 0 0 0 0 0 0 0 0 0 0 0 0 0 0 0 0 127 0"
        result="hardAlpha" />
      <feOffset />
      <feGaussianBlur stdDeviation="2" />
      <feColorMatrix type="matrix" values="0 0 0 0 0 0 0 0 0 0 0 0 0 0 0 0 0 0 0.15 0" />
      <feBlend mode="normal" in2="BackgroundImageFix" result="effect1_dropShadow_62_19120" />
      <feBlend mode="normal" in="SourceGraphic" in2="effect1_dropShadow_62_19120" result="shape" />
    </filter>
    <linearGradient id="paint0_linear_62_19120" x1="32" y1="0" x2="32" y2="64" gradientUnits="userSpaceOnUse">
      <stop stop-color="white" stop-opacity="0.7" />
      <stop offset="1" stop-color="white" stop-opacity="0" />
    </linearGradient>
    <linearGradient id="paint1_linear_62_19120" x1="31.5" y1="5" x2="31.5" y2="58" gradientUnits="userSpaceOnUse">
      <stop stop-color="white" stop-opacity="0.7" />
      <stop offset="1" stop-color="white" stop-opacity="0" />
    </linearGradient>
    <linearGradient id="paint2_linear_62_19120" x1="31.5" y1="5" x2="31.5" y2="58" gradientUnits="userSpaceOnUse">
      <stop stop-color="white" stop-opacity="0.7" />
      <stop offset="1" stop-color="white" stop-opacity="0" />
    </linearGradient>
    <linearGradient id="paint3_linear_62_19120" x1="78" y1="55" x2="78" y2="101" gradientUnits="userSpaceOnUse">
      <stop stop-color="white" stop-opacity="0.4" />
      <stop offset="1" stop-color="white" stop-opacity="0" />
    </linearGradient>
    <linearGradient id="paint4_linear_62_19120" x1="78" y1="55" x2="78" y2="101" gradientUnits="userSpaceOnUse">
      <stop stop-opacity="0.04" />
      <stop offset="1" stop-opacity="0" />
    </linearGradient>
    <clipPath id="clip0_62_19120">
      <rect x="55" y="55" width="46" height="46" rx="23" transform="rotate(-180 55 55)" fill="white" />
    </clipPath>
    <clipPath id="clip1_62_19120">
      <rect width="32.2" height="32.2" fill="white" transform="translate(48.1001 48.1001) rotate(-180)" />
    </clipPath>
  </defs>
</svg>