<svg width="64" height="64" viewBox="0 0 64 64" fill="none" xmlns="http://www.w3.org/2000/svg">
  <rect width="64" height="64" rx="32" fill="#EAECEE" />
  <rect width="64" height="64" rx="32" fill="url(#paint0_linear_62_19107)" />
  <g filter="url(#filter0_d_62_19107)">
    <circle cx="32" cy="32" r="26" fill="#FCFCFD" />
    <circle cx="32" cy="32" r="26" stroke="#EBECEF" />
  </g>
  <circle cx="32" cy="32" r="26" fill="#EEEFF2" />
  <circle cx="31.5" cy="31.5" r="26.5" fill="url(#paint1_linear_62_19107)" />
  <circle cx="31.5" cy="31.5" r="26.5" fill="url(#paint2_linear_62_19107)" />
  <rect x="9" y="9" width="46" height="46" rx="23" fill="#E2E5E9" />
  <g clip-path="url(#clip0_62_19107)">
    <rect x="9" y="9" width="46" height="46" rx="23" fill="white" />
    <rect opacity="0.24" x="9" y="9" width="46" height="46" rx="23" fill="#00AED6" />
    <path fill-rule="evenodd" clip-rule="evenodd"
      d="M25.7125 26.7479C26.6658 25.2506 28.4374 23 29.9951 23C32.8688 23 39.6066 28.9287 39.6113 32.7649C39.6113 35.8572 34.7986 39.3493 33.0595 40.5118C32.827 40.6513 32.3852 40.3212 32.4782 39.9957C32.7154 39.1633 33.0037 37.0104 32.255 35.4154C31.1716 33.0858 25.8241 29.0124 25.8241 29.0124C25.2336 28.3893 25.1871 27.4268 25.7125 26.7479ZM29.6185 34.2064L29.7115 34.2808C32.5062 36.6709 31.4599 41.6232 28.9675 41.5999C27.5214 41.5999 25.9032 40.1538 25.0197 38.9913C24.6942 38.5588 24.7361 37.945 25.1081 37.5498L28.2282 34.2808C28.5955 33.8809 29.2093 33.853 29.6185 34.2064Z"
      fill="#00AED6" />
  </g>
  <rect x="9.5" y="9.5" width="45" height="45" rx="22.5" fill="url(#paint3_linear_62_19107)" />
  <rect x="9.5" y="9.5" width="45" height="45" rx="22.5" stroke="url(#paint4_linear_62_19107)" />
  <defs>
    <filter id="filter0_d_62_19107" x="1.5" y="1.5" width="61" height="61" filterUnits="userSpaceOnUse"
      color-interpolation-filters="sRGB">
      <feFlood flood-opacity="0" result="BackgroundImageFix" />
      <feColorMatrix in="SourceAlpha" type="matrix" values="0 0 0 0 0 0 0 0 0 0 0 0 0 0 0 0 0 0 127 0"
        result="hardAlpha" />
      <feOffset />
      <feGaussianBlur stdDeviation="2" />
      <feColorMatrix type="matrix" values="0 0 0 0 0 0 0 0 0 0 0 0 0 0 0 0 0 0 0.15 0" />
      <feBlend mode="normal" in2="BackgroundImageFix" result="effect1_dropShadow_62_19107" />
      <feBlend mode="normal" in="SourceGraphic" in2="effect1_dropShadow_62_19107" result="shape" />
    </filter>
    <linearGradient id="paint0_linear_62_19107" x1="32" y1="0" x2="32" y2="64" gradientUnits="userSpaceOnUse">
      <stop stop-color="white" stop-opacity="0.7" />
      <stop offset="1" stop-color="white" stop-opacity="0" />
    </linearGradient>
    <linearGradient id="paint1_linear_62_19107" x1="31.5" y1="5" x2="31.5" y2="58" gradientUnits="userSpaceOnUse">
      <stop stop-color="white" stop-opacity="0.7" />
      <stop offset="1" stop-color="white" stop-opacity="0" />
    </linearGradient>
    <linearGradient id="paint2_linear_62_19107" x1="31.5" y1="5" x2="31.5" y2="58" gradientUnits="userSpaceOnUse">
      <stop stop-color="white" stop-opacity="0.7" />
      <stop offset="1" stop-color="white" stop-opacity="0" />
    </linearGradient>
    <linearGradient id="paint3_linear_62_19107" x1="32" y1="9" x2="32" y2="55" gradientUnits="userSpaceOnUse">
      <stop stop-color="white" stop-opacity="0.4" />
      <stop offset="1" stop-color="white" stop-opacity="0" />
    </linearGradient>
    <linearGradient id="paint4_linear_62_19107" x1="32" y1="9" x2="32" y2="55" gradientUnits="userSpaceOnUse">
      <stop stop-opacity="0.04" />
      <stop offset="1" stop-opacity="0" />
    </linearGradient>
    <clipPath id="clip0_62_19107">
      <rect x="9" y="9" width="46" height="46" rx="23" fill="white" />
    </clipPath>
  </defs>
</svg>