<svg width="64" height="64" viewBox="0 0 64 64" fill="none" xmlns="http://www.w3.org/2000/svg">
  <rect width="64" height="64" rx="32" fill="#EAECEE" />
  <rect width="64" height="64" rx="32" fill="url(#paint0_linear_62_19559)" />
  <g filter="url(#filter0_d_62_19559)">
    <circle cx="32" cy="32" r="26" fill="#FCFCFD" />
    <circle cx="32" cy="32" r="26" stroke="#EBECEF" />
  </g>
  <circle cx="32" cy="32" r="26" fill="#EEEFF2" />
  <circle cx="31.5" cy="31.5" r="26.5" fill="url(#paint1_linear_62_19559)" />
  <circle cx="31.5" cy="31.5" r="26.5" fill="url(#paint2_linear_62_19559)" />
  <g clip-path="url(#clip0_62_19559)">
    <rect x="9" y="9" width="46" height="46" rx="23" fill="#E2E5E9" />
    <g clip-path="url(#clip1_62_19559)">
      <rect x="9" y="9" width="46" height="46" rx="16" fill="white" />
      <rect opacity="0.24" x="9" y="9" width="46" height="46" rx="23" fill="#0E64E8" />
      <g clip-path="url(#clip2_62_19559)">
        <path fill-rule="evenodd" clip-rule="evenodd"
          d="M42.5629 23.7966C35.5205 24.0006 28.4794 24.0006 21.437 23.7966C20.0457 23.7564 18.8556 22.938 18.6396 21.8405C18.5645 21.4581 18.5645 21.0757 18.6396 20.6934C18.8556 19.5945 20.0457 18.7775 21.437 18.7372C28.4794 18.5319 35.5205 18.5319 42.5629 18.7372C43.9542 18.7775 45.1442 19.5945 45.3602 20.6934C45.4354 21.0757 45.4354 21.4581 45.3602 21.8405C45.1442 22.938 43.9542 23.7564 42.5629 23.7966ZM41.148 25.9624H39.8332H38.729H25.2707H24.4631H22.8517C22.464 31.2459 22.5311 36.5267 23.1093 41.8102C23.3132 43.6872 24.7958 45.222 26.7882 45.5977C28.5256 45.9237 30.2631 46.0874 32.0005 46.0874C33.738 46.0874 35.4741 45.9237 37.2116 45.5977C39.2053 45.222 40.6865 43.6872 40.8918 41.8102C41.4687 36.5267 41.5358 31.2459 41.148 25.9624ZM32.0001 29.9875C32.6881 29.9875 33.2552 30.5055 33.3327 31.1727L33.3417 31.3292V37.2719L34.5083 36.3251C35.0835 35.858 35.9285 35.9456 36.3956 36.5208C36.8268 37.0517 36.7853 37.8125 36.324 38.2939L36.2 38.4081L32.9327 41.0615C32.4414 41.4635 31.7505 41.497 31.217 41.1648L31.0756 41.0651L27.8006 38.4086C27.2251 37.9418 27.137 37.0969 27.6038 36.5214C28.0347 35.9902 28.7878 35.8743 29.3537 36.2267L29.491 36.3246L30.6584 37.272V31.3292C30.6584 30.5882 31.2591 29.9875 32.0001 29.9875Z"
          fill="#0E64E8" />
      </g>
    </g>
    <rect x="9.5" y="9.5" width="45" height="45" rx="22.5" fill="url(#paint3_linear_62_19559)" />
    <rect x="9.5" y="9.5" width="45" height="45" rx="22.5" stroke="url(#paint4_linear_62_19559)" />
  </g>
  <defs>
    <filter id="filter0_d_62_19559" x="1.5" y="1.5" width="61" height="61" filterUnits="userSpaceOnUse"
      color-interpolation-filters="sRGB">
      <feFlood flood-opacity="0" result="BackgroundImageFix" />
      <feColorMatrix in="SourceAlpha" type="matrix" values="0 0 0 0 0 0 0 0 0 0 0 0 0 0 0 0 0 0 127 0"
        result="hardAlpha" />
      <feOffset />
      <feGaussianBlur stdDeviation="2" />
      <feColorMatrix type="matrix" values="0 0 0 0 0 0 0 0 0 0 0 0 0 0 0 0 0 0 0.15 0" />
      <feBlend mode="normal" in2="BackgroundImageFix" result="effect1_dropShadow_62_19559" />
      <feBlend mode="normal" in="SourceGraphic" in2="effect1_dropShadow_62_19559" result="shape" />
    </filter>
    <linearGradient id="paint0_linear_62_19559" x1="32" y1="0" x2="32" y2="64" gradientUnits="userSpaceOnUse">
      <stop stop-color="white" stop-opacity="0.7" />
      <stop offset="1" stop-color="white" stop-opacity="0" />
    </linearGradient>
    <linearGradient id="paint1_linear_62_19559" x1="31.5" y1="5" x2="31.5" y2="58" gradientUnits="userSpaceOnUse">
      <stop stop-color="white" stop-opacity="0.7" />
      <stop offset="1" stop-color="white" stop-opacity="0" />
    </linearGradient>
    <linearGradient id="paint2_linear_62_19559" x1="31.5" y1="5" x2="31.5" y2="58" gradientUnits="userSpaceOnUse">
      <stop stop-color="white" stop-opacity="0.7" />
      <stop offset="1" stop-color="white" stop-opacity="0" />
    </linearGradient>
    <linearGradient id="paint3_linear_62_19559" x1="32" y1="9" x2="32" y2="55" gradientUnits="userSpaceOnUse">
      <stop stop-color="white" stop-opacity="0.4" />
      <stop offset="1" stop-color="white" stop-opacity="0" />
    </linearGradient>
    <linearGradient id="paint4_linear_62_19559" x1="32" y1="9" x2="32" y2="55" gradientUnits="userSpaceOnUse">
      <stop stop-opacity="0.04" />
      <stop offset="1" stop-opacity="0" />
    </linearGradient>
    <clipPath id="clip0_62_19559">
      <rect x="9" y="9" width="46" height="46" rx="23" fill="white" />
    </clipPath>
    <clipPath id="clip1_62_19559">
      <rect x="9" y="9" width="46" height="46" rx="16" fill="white" />
    </clipPath>
    <clipPath id="clip2_62_19559">
      <rect width="32.2" height="32.2" fill="white" transform="translate(15.8999 15.8999)" />
    </clipPath>
  </defs>
</svg>