<svg width="27" height="30" viewBox="0 0 27 30" fill="none" xmlns="http://www.w3.org/2000/svg">
  <g clip-path="url(#clip0_34_17682)">
    <path
      d="M8.375 16.125H12.875C12.875 17.9924 14.3826 19.5 16.25 19.5H23C24.8674 19.5 26.375 17.9924 26.375 16.125V9.375C26.375 7.50747 24.8674 6 23 6H20.75V2.625H25.25V0.375H14V2.625H18.5V6H16.25C14.7762 6 13.5276 6.9337 13.0774 8.25H3.875C2.0076 8.25 0.5 9.75747 0.5 11.625V20.625H8.375V16.125ZM16.25 8.25H23C23.6188 8.25 24.125 8.75619 24.125 9.375V16.125C24.125 16.7438 23.6188 17.25 23 17.25H16.25C15.6312 17.25 15.125 16.7438 15.125 16.125V9.375C15.125 8.75619 15.6312 8.25 16.25 8.25ZM6.125 18.375H2.75V11.625C2.75 11.0062 3.25619 10.5 3.875 10.5H12.875V13.875H6.125V18.375Z"
      fill="#00880D" />
    <path
      d="M5 29.625C6.24255 29.625 7.25 28.6196 7.25 27.3794C7.25 26.1392 5 22.875 5 22.875C5 22.875 2.75 26.1392 2.75 27.3794C2.75 28.6196 3.75745 29.625 5 29.625Z"
      fill="#00880D" />
  </g>
  <defs>
    <clipPath id="clip0_34_17682">
      <rect width="25.875" height="29.25" fill="white" transform="translate(0.5 0.375)" />
    </clipPath>
  </defs>
</svg>