<svg width="36" height="36" viewBox="0 0 36 36" fill="none" xmlns="http://www.w3.org/2000/svg">
  <path
    d="M22.4936 22.1072L26.502 17.2971C28.078 17.4201 29.7215 17.7183 31.1096 18.3499L32.0413 16.302C28.6267 14.7507 24.1366 14.8837 21.7613 15.099L22.6891 10.8393C25.2446 10.4499 28.1708 10.3272 31.1206 11.6317L32.0303 9.57288C28.9041 8.193 25.8016 8.18873 23.1978 8.50418L23.9718 4.95093H12.6361L11.6243 10.5188C9.09029 10.7025 6.96937 10.3903 5.0215 9.55091L4.1294 11.6163C6.00806 12.4271 7.99878 12.8237 10.2532 12.8237C10.5652 12.8237 10.8893 12.8056 11.2112 12.7905L10.3438 17.5654C8.36957 17.4794 6.38215 17.1661 5.19288 16.3855L3.95801 18.2663C6.70459 20.0703 11.8396 19.9352 14.4225 19.7264L13.6117 23.7705C11.0134 24.1537 8.01746 24.3038 5.0116 23.0388L4.13929 25.113C6.25416 26.0029 8.32618 26.2985 10.2763 26.2985C11.2689 26.2985 12.2252 26.2178 13.1437 26.1043L12.5735 28.9484C12.3922 29.7328 12.7723 30.5249 13.4963 30.8754C13.7391 30.9929 13.9962 31.0489 14.25 31.0489C14.7532 31.0489 15.2399 30.827 15.5651 30.4216L20.2755 24.7694C23.595 24.1135 27.4363 23.5637 31.1415 25.1141L32.0094 23.0377C28.7272 21.6655 25.4747 21.6966 22.4936 22.1072H22.4936ZM15.186 27.3608L17.2394 17.1205L15.6716 17.3369C14.9883 17.4308 13.8847 17.5344 12.6279 17.575L14.5148 7.20092H21.1791L18.8742 17.7862L20.51 17.5149C20.5375 17.5099 21.8317 17.3028 23.6191 17.2404L15.186 27.3608L15.186 27.3608Z"
    fill="#00880D" />
</svg>